<?xml version="1.0" encoding="UTF-8"?>
<svg width="120px" height="26px" viewBox="0 0 120 26" version="1.1" xmlns="http://www.w3.org/2000/svg" xmlns:xlink="http://www.w3.org/1999/xlink">
    <!-- Generator: Sketch 51.3 (57544) - http://www.bohemiancoding.com/sketch -->
    <title>logo</title>
    <desc>Created with Sketch.</desc>
    <defs>
        <polygon id="path-1" points="0 0.288212766 16.412129 0.288212766 16.412129 25.4466426 0 25.4466426"></polygon>
        <polygon id="path-3" points="0.22437224 0.5022638 7.94820276 0.5022638 7.94820276 7.15063626 0.22437224 7.15063626"></polygon>
    </defs>
    <g id="Final" stroke="none" stroke-width="1" fill="none" fill-rule="evenodd">
        <g transform="translate(-115.000000, -33.000000)" id="header">
            <g>
                <g id="logo" transform="translate(115.000000, 33.000000)">
                    <path d="M34.6753548,25.7116766 C31.1395023,25.7116766 27.9470599,24.3198468 25.6853088,21.7934213 C23.5960922,19.4589532 22.4458618,16.3710383 22.4458618,13.0989106 C22.4458618,12.2503149 22.5243871,11.4000596 22.6814378,10.5708255 C22.8749862,9.54078298 23.8648479,8.86035745 24.8978433,9.05674043 C25.9286267,9.25091064 26.6060461,10.2438894 26.4119447,11.2739319 C26.2996866,11.8719319 26.2421751,12.4859745 26.2421751,13.0989106 C26.2421751,17.3723149 29.1979355,21.914017 34.6753548,21.914017 C40.1422673,21.914017 43.0919447,17.3723149 43.0919447,13.0989106 C43.0919447,7.9016766 39.5057696,4.94818723 36.1739724,4.40274043 C35.139318,4.23346383 34.4370138,3.25708085 34.6067834,2.22205957 C34.776,1.18759149 35.7514839,0.485591489 36.7861382,0.654314894 C42.7347097,1.62737872 46.8888111,6.74495319 46.8888111,13.0989106 C46.8888111,16.3682723 45.7363687,19.4561872 43.6449401,21.7934213 C41.3826359,24.3198468 38.1973825,25.7116766 34.6753548,25.7116766" id="Fill-1" fill="#464B50"></path>
                    <path d="M105.594304,25.1633532 L99.854765,25.1633532 C98.8062857,25.1633532 97.9557788,24.3130979 97.9557788,23.2642468 L97.9557788,2.4520766 C97.9557788,1.40377872 98.8062857,0.553523404 99.854765,0.553523404 L105.594304,0.553523404 C111.070618,0.553523404 115.582507,3.60271489 117.367576,8.51228936 C117.725917,9.4980766 117.218267,10.5873106 116.232276,10.9463319 C115.246839,11.3053532 114.157991,10.7958638 113.79965,9.81062979 C112.556516,6.39190638 109.489051,4.35118298 105.594304,4.35118298 L101.753198,4.35118298 L101.753198,21.3656936 L105.594304,21.3656936 C107.02435,21.3656936 108.339926,21.0996085 109.504535,20.5757362 C110.462323,20.1459064 111.584903,20.5729702 112.014581,21.5294383 C112.444811,22.4859064 112.017346,23.6099915 111.06177,24.0403745 C109.403889,24.7855234 107.564627,25.1633532 105.594304,25.1633532" id="Fill-3" fill="#464B50"></path>
                    <path d="M66.5265622,25.1633532 L55.1414931,25.1633532 C54.0935668,25.1633532 53.2430599,24.3130979 53.2430599,23.2642468 L53.2430599,2.66726809 C53.2430599,1.61786383 54.0935668,0.767608511 55.1414931,0.767608511 C56.1905253,0.767608511 57.0404793,1.61786383 57.0404793,2.66726809 L57.0404793,21.3656936 L66.5265622,21.3656936 C67.5750415,21.3656936 68.4249954,22.2159489 68.4249954,23.2642468 C68.4249954,24.3130979 67.5750415,25.1633532 66.5265622,25.1633532" id="Fill-5" fill="#464B50"></path>
                    <path d="M79.8265438,25.1633532 C79.082765,25.1633532 78.4081106,24.7296511 78.0989862,24.0530979 L68.1987097,3.45556596 C67.7635023,2.50131064 68.1837788,1.37501277 69.1376959,0.939097872 C70.0916129,0.50373617 71.2180645,0.924714894 71.6532719,1.87841702 L79.8215668,18.6793957 L87.9423041,1.88228936 C88.3752995,0.92692766 89.5000922,0.504289362 90.4551152,0.937438298 C91.4095853,1.37058723 91.8326267,2.49633191 91.3996313,3.45169362 L81.5552074,24.0492255 C81.2471889,24.7268851 80.5725346,25.1628 79.8282028,25.1633532 L79.8265438,25.1633532 Z" id="Fill-7" fill="#464B50"></path>
                    <g id="Group-11" transform="translate(0.000000, 0.265034)">
                        <mask id="mask-2" fill="white">
                            <use xlink:href="#path-1"></use>
                        </mask>
                        <g id="Clip-10"></g>
                        <path d="M8.33729032,25.4466426 C4.04604608,25.4466426 0.786691244,22.8577064 0.0329585253,18.8503872 C-0.160589862,17.8197915 0.517382488,16.8268128 1.5481659,16.6331957 C2.57729032,16.4401319 3.57102304,17.1177915 3.76401843,18.1489404 C4.176553,20.3406851 5.88586175,21.648983 8.33729032,21.648983 C9.34042396,21.648983 12.6147097,21.3945149 12.6147097,18.1257064 C12.6147097,16.1524723 11.1708387,15.3663872 7.93415668,14.3507277 C5.0519447,13.4545574 0.690470046,12.0981319 0.690470046,6.98498298 C0.690470046,3.04183404 3.81434101,0.288046809 8.28807373,0.288046809 C11.9621751,0.288046809 14.854894,2.49638723 15.6583963,5.91289787 C15.8983963,6.93408936 15.2652166,7.95638723 14.2449401,8.19647234 C13.2246636,8.43600426 12.2021751,7.80315319 11.9621751,6.78251489 C11.5590415,5.06872766 10.2202396,4.08625957 8.28807373,4.08625957 C6.53452535,4.08625957 4.48678341,4.84579149 4.48678341,6.98498298 C4.48678341,8.98200426 5.57397235,9.63974894 9.06503226,10.7256638 C11.8156313,11.5880894 16.412129,13.0308128 16.412129,18.1257064 C16.412129,22.4361745 13.0913917,25.4466426 8.33729032,25.4466426" id="Fill-9" fill="#464B50" mask="url(#mask-2)"></path>
                    </g>
                    <path d="M29.0109124,8.42770638 L28.1371797,8.21749362 C27.5736774,8.08251489 27.2269493,7.5166 27.3629862,6.95345106 L27.9397604,4.54983404 L25.5364424,3.97285532 C24.9734931,3.8373234 24.626765,3.2719617 24.7616959,2.70825957 L24.9718341,1.83421702 C25.106765,1.27106809 25.6730323,0.924770213 26.2354286,1.05974894 L30.8225253,2.16115319 C31.225106,2.2579617 31.4722949,2.66179149 31.3760737,3.06451489 L30.2745069,7.6532383 C30.139576,8.21583404 29.5738618,8.56268511 29.0109124,8.42770638" id="Fill-12" fill="#1F82FF"></path>
                    <g id="Group-16" transform="translate(111.705069, 12.435247)">
                        <mask id="mask-4" fill="white">
                            <use xlink:href="#path-3"></use>
                        </mask>
                        <g id="Clip-15"></g>
                        <path d="M1.83743779,6.64842128 L0.282967742,2.19246383 C0.0927373272,1.64591064 0.380847926,1.04791064 0.927760369,0.857059574 L1.77660829,0.561102128 C2.32296774,0.370251064 2.92075576,0.659017021 3.11153917,1.20557021 L3.92499539,3.53948511 L6.25808295,2.72518723 C6.8044424,2.53433617 7.40223041,2.82310213 7.59356682,3.36965532 L7.88941935,4.21825106 C8.08020276,4.76535745 7.79209217,5.36335745 7.24462673,5.55365532 L2.79135484,7.1086766 C2.40094009,7.2447617 1.97347465,7.03897447 1.83743779,6.64842128" id="Fill-14" fill="#1F82FF" mask="url(#mask-4)"></path>
                    </g>
                </g>
            </g>
        </g>
    </g>
</svg>