<?xml version="1.0" encoding="UTF-8"?>
<svg width="748px" height="816px" viewBox="0 0 748 816" version="1.1" xmlns="http://www.w3.org/2000/svg" xmlns:xlink="http://www.w3.org/1999/xlink">
    <!-- Generator: Sketch 51.3 (57544) - http://www.bohemiancoding.com/sketch -->
    <title>Group 21</title>
    <desc>Created with Sketch.</desc>
    <defs>
        <rect id="path-1" x="98" y="35" width="628" height="607" rx="40"></rect>
        <rect id="path-3" x="126" y="63" width="572" height="551" rx="30"></rect>
        <filter x="-4.1%" y="-3.9%" width="108.2%" height="108.5%" filterUnits="objectBoundingBox" id="filter-5">
            <feOffset dx="0" dy="2" in="SourceAlpha" result="shadowOffsetOuter1"></feOffset>
            <feGaussianBlur stdDeviation="7.5" in="shadowOffsetOuter1" result="shadowBlurOuter1"></feGaussianBlur>
            <feColorMatrix values="0 0 0 0 0.901960784   0 0 0 0 0.921568627   0 0 0 0 0.941176471  0 0 0 1 0" type="matrix" in="shadowBlurOuter1"></feColorMatrix>
        </filter>
        <path d="M206.709887,232.742402 L188.240746,251.326402 L169.771604,232.742402 L130.504001,232.742402 L130.504001,94.291601 L492.892004,94.291601 L492.892004,232.742402 L206.709887,232.742402 Z" id="path-6"></path>
        <filter x="-4.8%" y="-9.9%" width="109.7%" height="122.3%" filterUnits="objectBoundingBox" id="filter-7">
            <feOffset dx="0" dy="2" in="SourceAlpha" result="shadowOffsetOuter1"></feOffset>
            <feGaussianBlur stdDeviation="5.5" in="shadowOffsetOuter1" result="shadowBlurOuter1"></feGaussianBlur>
            <feColorMatrix values="0 0 0 0 0   0 0 0 0 0   0 0 0 0 0  0 0 0 0.1 0" type="matrix" in="shadowBlurOuter1"></feColorMatrix>
        </filter>
        <rect id="path-8" x="0" y="0" width="260.176002" height="65.0440006"></rect>
        <filter x="-6.7%" y="-23.8%" width="113.5%" height="153.8%" filterUnits="objectBoundingBox" id="filter-9">
            <feOffset dx="0" dy="2" in="SourceAlpha" result="shadowOffsetOuter1"></feOffset>
            <feGaussianBlur stdDeviation="5.5" in="shadowOffsetOuter1" result="shadowBlurOuter1"></feGaussianBlur>
            <feColorMatrix values="0 0 0 0 0   0 0 0 0 0   0 0 0 0 0  0 0 0 0.1 0" type="matrix" in="shadowBlurOuter1"></feColorMatrix>
        </filter>
        <rect id="path-10" x="0" y="74.3360006" width="260.176002" height="128.229601"></rect>
        <filter x="-6.7%" y="-12.1%" width="113.5%" height="127.3%" filterUnits="objectBoundingBox" id="filter-11">
            <feOffset dx="0" dy="2" in="SourceAlpha" result="shadowOffsetOuter1"></feOffset>
            <feGaussianBlur stdDeviation="5.5" in="shadowOffsetOuter1" result="shadowBlurOuter1"></feGaussianBlur>
            <feColorMatrix values="0 0 0 0 0   0 0 0 0 0   0 0 0 0 0  0 0 0 0.1 0" type="matrix" in="shadowBlurOuter1"></feColorMatrix>
        </filter>
        <circle id="path-12" cx="19.5132002" cy="19.5132002" r="19.5132002"></circle>
        <circle id="path-14" cx="19.5132002" cy="19.5132002" r="19.5132002"></circle>
        <rect id="path-16" x="0" y="0" width="176.548002" height="259.246802" rx="6.2442242"></rect>
        <filter x="-19.8%" y="-12.0%" width="139.6%" height="127.0%" filterUnits="objectBoundingBox" id="filter-17">
            <feOffset dx="0" dy="4" in="SourceAlpha" result="shadowOffsetOuter1"></feOffset>
            <feGaussianBlur stdDeviation="11" in="shadowOffsetOuter1" result="shadowBlurOuter1"></feGaussianBlur>
            <feColorMatrix values="0 0 0 0 0   0 0 0 0 0   0 0 0 0 0  0 0 0 0.1 0" type="matrix" in="shadowBlurOuter1"></feColorMatrix>
        </filter>
        <circle id="path-18" cx="53.4290005" cy="53.4290005" r="53.4290005"></circle>
    </defs>
    <g id="Final" stroke="none" stroke-width="1" fill="none" fill-rule="evenodd">
        <g id="Group-21" transform="translate(22.000000, 18.000000)">
            <g id="Group-9" transform="translate(296.000000, 627.000000)">
                <circle id="Oval-3-Copy-4" fill="#E6EBF0" cx="410" cy="163" r="7"></circle>
                <path d="M0,0 L0,123 C2.705415e-15,145.09139 17.90861,163 40,163 L409,163" id="Path-5" stroke="#E6EBF0" stroke-width="4"></path>
                <circle id="Oval-3-Copy-2" fill="#E6EBF0" cx="140" cy="164" r="7"></circle>
            </g>
            <g id="value4-card">
                <mask id="mask-2" fill="white">
                    <use xlink:href="#path-1"></use>
                </mask>
                <use id="Mask" fill="#E6EBF0" xlink:href="#path-1"></use>
                <mask id="mask-4" fill="white">
                    <use xlink:href="#path-3"></use>
                </mask>
                <g id="Mask">
                    <use fill="black" fill-opacity="1" filter="url(#filter-5)" xlink:href="#path-3"></use>
                    <use fill="#FFFFFF" fill-rule="evenodd" xlink:href="#path-3"></use>
                </g>
                <g id="floorplan" transform="translate(182.000000, 129.000000)">
                    <g id="grid" transform="translate(6.000000, 0.000000)" stroke="#E6EBF0">
                        <polyline id="Path-11" stroke-width="1.85840002" points="2.52807737 1.94369767 148.871634 1.94369767 148.871634 421.749728 2.52807737 421.749728"></polyline>
                        <path d="M148.207401,421.392204 L442.763804,421.392204" id="Line" stroke-width="1.85840002" stroke-linecap="square"></path>
                        <polyline id="Path-3" stroke-width="1.85840002" points="442.420798 92.4227336 148.672001 92.4227336 148.672001 339.48286 442.420798 339.48286"></polyline>
                        <rect id="Rectangle-7" stroke-width="3.71680003" x="1.85840002" y="1.85840002" width="439.511604" height="419.069204"></rect>
                    </g>
                    <g id="card-and-points" transform="translate(0.575200, 41.814000)">
                        <g id="point4" transform="translate(0.000000, 200.000000)" fill="#1F82FF">
                            <circle id="Oval-2" cx="31.5928003" cy="31.5928003" r="8.36280007"></circle>
                            <circle id="Oval-2" fill-opacity="0.100000001" cx="32.0574003" cy="32.0574003" r="20.9070002"></circle>
                            <circle id="Oval-2" fill-opacity="0.05" cx="32.5220003" cy="32.5220003" r="32.5220003"></circle>
                        </g>
                        <g id="point2" transform="translate(398.476403, 53.893600)" fill="#1F82FF">
                            <circle id="Oval-2" cx="31.5928003" cy="31.5928003" r="8.36280007"></circle>
                            <circle id="Oval-2" fill-opacity="0.100000001" cx="32.0574003" cy="32.0574003" r="20.9070002"></circle>
                            <circle id="Oval-2" fill-opacity="0.05" cx="32.5220003" cy="32.5220003" r="32.5220003"></circle>
                        </g>
                        <g id="point1" transform="translate(11.000000, 0.000000)" fill="#1F82FF">
                            <circle id="Oval-2" cx="31.5928003" cy="31.5928003" r="8.36280007"></circle>
                            <circle id="Oval-2" fill-opacity="0.100000001" cx="32.0574003" cy="32.0574003" r="20.9070002"></circle>
                            <circle id="Oval-2" fill-opacity="0.05" cx="32.5220003" cy="32.5220003" r="32.5220003"></circle>
                        </g>
                        <g id="point3" transform="translate(156.884401, 232.742402)" fill="#1F82FF">
                            <circle id="Oval-2" cx="31.5928003" cy="31.5928003" r="8.36280007"></circle>
                            <circle id="Oval-2" fill-opacity="0.100000001" cx="32.0574003" cy="32.0574003" r="20.9070002"></circle>
                            <circle id="Oval-2" fill-opacity="0.05" cx="32.5220003" cy="32.5220003" r="32.5220003"></circle>
                        </g>
                        <g id="card">
                            <use fill="black" fill-opacity="1" filter="url(#filter-7)" xlink:href="#path-6"></use>
                            <use fill="#FFFFFF" fill-rule="evenodd" xlink:href="#path-6"></use>
                        </g>
                        <g id="card-content" transform="translate(160.238401, 117.521601)">
                            <g id="Group-4" transform="translate(0.000000, 64.114801)">
                                <path d="M9.88668809,10.9595778 L5.75360645,10.9595778 L5.75360645,20.8760002 L4.38582404,20.8760002 L4.38582404,10.9595778 L0.252742402,10.9595778 L0.252742402,9.75533455 L9.88668809,9.75533455 L9.88668809,10.9595778 Z M13.4994177,13.204525 L13.4994177,14.4385026 C12.1465025,14.4385026 11.2990721,15.360269 11.2990721,16.5199106 L11.2990721,20.8760002 L10.0204929,20.8760002 L10.0204929,13.2937282 L11.2693377,13.2937282 L11.2693377,14.4385026 C11.5369473,13.8140802 12.2505729,13.204525 13.4994177,13.204525 Z M17.7068354,13.1599234 C19.5801026,13.1599234 20.6059394,14.2303618 20.6059394,16.103629 L20.6059394,20.8760002 L19.312493,20.8760002 L19.312493,19.9839682 C18.7624066,20.638125 17.9893122,21.0246722 17.0526785,21.0246722 C15.5808257,21.0246722 14.5698561,20.2515778 14.5698561,18.8689282 C14.5698561,17.293005 15.7592321,16.698317 17.3500226,16.6091138 L19.312493,16.4901762 L19.312493,16.1333634 C19.312493,14.988589 18.8070082,14.2898306 17.7217026,14.2898306 C16.5917953,14.2898306 16.0714433,15.062925 16.0714433,15.8657538 L14.7779969,15.806285 C14.7779969,14.4979714 15.8633025,13.1599234 17.7068354,13.1599234 Z M19.3273602,17.516013 L17.5135618,17.6349506 C16.5323265,17.6944194 15.8633025,18.0066306 15.8633025,18.8391938 C15.8633025,19.6420226 16.4431233,19.9244994 17.2459522,19.9244994 C18.3907266,19.9244994 19.3273602,19.3446786 19.3273602,17.8282242 L19.3273602,17.516013 Z M27.043437,13.1599234 C29.1248451,13.1599234 30.7007683,14.6466434 30.7007683,17.0848642 C30.7007683,19.5379522 29.1248451,21.0246722 27.043437,21.0246722 C25.7648578,21.0246722 24.8430914,20.4745858 24.4119426,19.746093 L24.4119426,24.6671363 L23.1333634,24.6671363 L23.1333634,13.2937282 L24.3524738,13.2937282 L24.3524738,14.542573 C24.7836226,13.7546114 25.7351234,13.1599234 27.043437,13.1599234 Z M26.8501634,14.2749634 C25.4675138,14.2749634 24.4268098,15.1521282 24.4268098,16.8767234 L24.4268098,17.3227394 C24.4268098,19.0324674 25.4675138,19.9096322 26.8501634,19.9096322 C28.2922818,19.9096322 29.3924547,18.9135298 29.3924547,17.0997314 C29.3924547,15.2710658 28.2922818,14.2749634 26.8501634,14.2749634 Z M37.7329539,20.8760002 L36.3651715,20.8760002 L36.3651715,9.75533455 L37.7329539,9.75533455 L37.7329539,20.8760002 Z M40.3941828,9.75533455 L44.7354052,9.75533455 C47.7980484,9.75533455 50.0875972,11.792141 50.0875972,15.3156674 C50.0875972,18.8391938 47.7534468,20.8760002 44.7056708,20.8760002 L40.3941828,20.8760002 L40.3941828,9.75533455 Z M41.747098,10.9149762 L41.747098,19.7163586 L44.720538,19.7163586 C47.0398212,19.7163586 48.734682,18.185037 48.734682,15.3156674 C48.734682,12.4462978 47.0844228,10.9149762 44.7502724,10.9149762 L41.747098,10.9149762 Z M52.3920133,13.1599234 C52.8826309,13.1599234 53.2840453,13.5464706 53.2840453,14.0519554 C53.2840453,14.5277058 52.8826309,14.914253 52.3920133,14.914253 C51.9162629,14.914253 51.5297156,14.5277058 51.5297156,14.0519554 C51.5297156,13.5464706 51.9162629,13.1599234 52.3920133,13.1599234 Z M52.3920133,19.2554754 C52.8826309,19.2554754 53.2840453,19.6568898 53.2840453,20.1475074 C53.2840453,20.6232578 52.8826309,21.0246722 52.3920133,21.0246722 C51.9162629,21.0246722 51.5297156,20.6232578 51.5297156,20.1475074 C51.5297156,19.6568898 51.9162629,19.2554754 52.3920133,19.2554754 Z M61.7137477,20.8760002 L60.3756997,20.8760002 L60.3756997,11.5840002 L58.4132293,13.0855874 L57.7442053,12.0300162 L60.7176453,9.75533455 L61.7137477,9.75533455 L61.7137477,20.8760002 Z M67.1700102,9.62152974 C69.2216838,9.62152974 70.3664582,10.7960386 70.3664582,12.7287746 C70.3664582,14.5871746 69.4298246,15.8360194 68.1809798,17.144333 L65.7724934,19.671757 L70.500263,19.671757 L70.500263,20.8760002 L63.9140934,20.8760002 L63.9140934,19.7758274 L67.1700102,16.3415042 C68.4337222,15.0183234 68.9986758,14.2154946 68.9986758,12.7882434 C68.9986758,11.6137346 68.3742534,10.825773 67.1997446,10.825773 C65.9062982,10.825773 65.2521414,11.6583362 65.2372742,13.055853 L63.884359,12.981517 C63.9140934,10.8703746 65.1034694,9.62152974 67.1700102,9.62152974 Z M73.622375,16.623981 L76.9526279,13.2937282 L78.5434183,13.2937282 L75.3469703,16.5942466 L78.9002311,20.8760002 L77.2648391,20.8760002 L74.440071,17.5308802 L73.622375,18.333709 L73.622375,20.8760002 L72.3437958,20.8760002 L72.3437958,9.32418574 L73.622375,9.32418574 L73.622375,16.623981 Z M83.1373831,9.60666254 C85.1295879,9.60666254 86.3338312,10.7960386 86.3338312,12.6544386 C86.3338312,13.9627522 85.6053383,14.7953154 84.7430407,15.1223938 C85.7986119,15.3751362 86.616308,16.2820354 86.616308,17.739021 C86.616308,19.7609602 85.2336583,21.0246722 83.1671175,21.0246722 C80.9965063,21.0246722 79.7922631,19.7609602 79.6584583,17.7538882 L81.0262407,17.6795522 C81.1451783,19.0176002 81.8588039,19.8055618 83.1671175,19.8055618 C84.4605639,19.8055618 85.2485255,19.0176002 85.2485255,17.7092866 C85.2485255,16.3861058 84.3267591,15.731949 83.0481799,15.731949 L81.9628743,15.731949 L81.9628743,14.5277058 L83.0184455,14.5277058 C84.1483527,14.5277058 84.9660487,13.8140802 84.9660487,12.6544386 C84.9660487,11.4650626 84.2524231,10.825773 83.1373831,10.825773 C81.9628743,10.825773 81.2641159,11.5542658 81.1749127,12.832845 L79.8368647,12.758509 C79.9112007,10.8109058 81.1005767,9.60666254 83.1373831,9.60666254 Z M91.4035464,9.62152974 C93.45522,9.62152974 94.5999944,10.7960386 94.5999944,12.7287746 C94.5999944,14.5871746 93.6633608,15.8360194 92.414516,17.144333 L90.0060296,19.671757 L94.7337992,19.671757 L94.7337992,20.8760002 L88.1476296,20.8760002 L88.1476296,19.7758274 L91.4035464,16.3415042 C92.6672584,15.0183234 93.232212,14.2154946 93.232212,12.7882434 C93.232212,11.6137346 92.6077896,10.825773 91.4332808,10.825773 C90.1398344,10.825773 89.4856776,11.6583362 89.4708104,13.055853 L88.1178952,12.981517 C88.1476296,10.8703746 89.3370056,9.62152974 91.4035464,9.62152974 Z M99.6548425,9.60666254 C101.795719,9.60666254 103.38651,11.0190466 103.38651,13.2193922 C103.38651,14.1411586 103.104033,14.8845186 102.628282,15.5238082 L98.6290057,20.8760002 L97.023348,20.8760002 L100.026522,16.846989 C99.9075849,16.8618562 99.7886473,16.8618562 99.6548425,16.8618562 C97.5437,16.8618562 95.9380424,15.4197378 95.9380424,13.2193922 C95.9380424,11.0190466 97.5437,9.60666254 99.6548425,9.60666254 Z M99.6548425,15.6724802 C100.442804,15.6724802 101.096961,15.3900034 101.52811,14.839917 C101.840321,14.4385026 102.018727,13.9181506 102.018727,13.2639938 C102.018727,11.7624066 101.022625,10.825773 99.6548425,10.825773 C98.3167945,10.825773 97.3058248,11.7624066 97.3058248,13.2639938 C97.3058248,14.765581 98.3167945,15.6724802 99.6548425,15.6724802 Z M108.188615,9.60666254 C110.18082,9.60666254 111.385063,10.7960386 111.385063,12.6544386 C111.385063,13.9627522 110.656571,14.7953154 109.794273,15.1223938 C110.849844,15.3751362 111.66754,16.2820354 111.66754,17.739021 C111.66754,19.7609602 110.284891,21.0246722 108.21835,21.0246722 C106.047739,21.0246722 104.843495,19.7609602 104.709691,17.7538882 L106.077473,17.6795522 C106.196411,19.0176002 106.910036,19.8055618 108.21835,19.8055618 C109.511796,19.8055618 110.299758,19.0176002 110.299758,17.7092866 C110.299758,16.3861058 109.377991,15.731949 108.099412,15.731949 L107.014107,15.731949 L107.014107,14.5277058 L108.069678,14.5277058 C109.199585,14.5277058 110.017281,13.8140802 110.017281,12.6544386 C110.017281,11.4650626 109.303655,10.825773 108.188615,10.825773 C107.014107,10.825773 106.315348,11.5542658 106.226145,12.832845 L104.888097,12.758509 C104.962433,10.8109058 106.151809,9.60666254 108.188615,9.60666254 Z M116.811591,9.60666254 C118.699726,9.60666254 120.156711,10.7217026 120.156711,12.5949698 C120.156711,13.7843458 119.502555,14.616909 118.655124,15.0034562 C119.666094,15.434605 120.439188,16.3861058 120.439188,17.7687554 C120.439188,19.7906946 118.878132,21.0246722 116.811591,21.0246722 C114.759918,21.0246722 113.198862,19.7906946 113.198862,17.7687554 C113.198862,16.400973 113.957089,15.4494722 114.968059,15.0183234 C114.090894,14.6317762 113.466471,13.7843458 113.466471,12.5949698 C113.466471,10.7217026 114.893723,9.60666254 116.811591,9.60666254 Z M116.826459,10.825773 C115.696551,10.825773 114.819387,11.494797 114.819387,12.6693058 C114.819387,13.799213 115.696551,14.468237 116.826459,14.468237 C117.941499,14.468237 118.818663,13.799213 118.818663,12.6693058 C118.818663,11.494797 117.941499,10.825773 116.826459,10.825773 Z M116.811591,15.657613 C115.533012,15.657613 114.551777,16.4158402 114.551777,17.7241538 C114.551777,19.0324674 115.533012,19.8055618 116.811591,19.8055618 C118.090171,19.8055618 119.071406,19.0324674 119.071406,17.7241538 C119.071406,16.4158402 118.090171,15.657613 116.811591,15.657613 Z M130.429947,20.8760002 L129.40411,20.8760002 L127.367304,15.4494722 L125.330497,20.8760002 L124.30466,20.8760002 L121.420423,13.2937282 L122.81794,13.2937282 L124.854747,18.7945922 L126.90642,13.2937282 L127.81332,13.2937282 L129.87986,18.7945922 L131.931534,13.2937282 L133.314184,13.2937282 L130.429947,20.8760002 Z M137.893281,13.7694786 C140.004424,13.7694786 141.610081,15.211597 141.610081,17.4119426 C141.610081,19.6122882 140.004424,21.0246722 137.893281,21.0246722 C135.752404,21.0246722 134.161614,19.6122882 134.161614,17.4119426 C134.161614,16.4901762 134.444091,15.7468162 134.919841,15.1075266 L138.919118,9.75533455 L140.524776,9.75533455 L137.521601,13.7843458 C137.640539,13.7694786 137.759476,13.7694786 137.893281,13.7694786 Z M137.893281,19.8055618 C139.231329,19.8055618 140.242299,18.8689282 140.242299,17.367341 C140.242299,15.8657538 139.231329,14.9588546 137.893281,14.9588546 C137.10532,14.9588546 136.451163,15.2413314 136.020014,15.7914178 C135.707803,16.1928322 135.529396,16.7131842 135.529396,17.367341 C135.529396,18.8689282 136.525499,19.8055618 137.893281,19.8055618 Z" id="Trap-ID:-12k32938w6" fill="#445366"></path>
                                <g id="Group-3" transform="translate(159.822401, 1.858400)" fill="#464B50">
                                    <rect id="Rectangle" x="0" y="0" width="11.0252425" height="31.5928003"></rect>
                                    <rect id="Rectangle-Copy-8" x="83.0135909" y="0" width="11.0252425" height="31.5928003"></rect>
                                    <rect id="Rectangle-Copy-4" x="40.8582518" y="0" width="11.0252425" height="31.5928003"></rect>
                                    <rect id="Rectangle-Copy-9" x="123.871843" y="0" width="11.0252425" height="31.5928003"></rect>
                                    <rect id="Rectangle-Copy-2" x="18.8077667" y="0" width="7.78252415" height="31.5928003"></rect>
                                    <rect id="Rectangle-Copy-10" x="101.821358" y="0" width="7.78252415" height="31.5928003"></rect>
                                    <rect id="Rectangle-Copy-5" x="59.6660185" y="0" width="7.78252415" height="31.5928003"></rect>
                                    <rect id="Rectangle-Copy-11" x="142.679609" y="0" width="7.78252415" height="31.5928003"></rect>
                                    <rect id="Rectangle-Copy-3" x="29.8330092" y="0" width="5.18834943" height="31.5928003"></rect>
                                    <rect id="Rectangle-Copy-12" x="112.8466" y="0" width="5.18834943" height="31.5928003"></rect>
                                    <rect id="Rectangle-Copy-6" x="70.691261" y="0" width="5.18834943" height="31.5928003"></rect>
                                    <rect id="Rectangle-Copy-13" x="153.704852" y="0" width="5.18834943" height="31.5928003"></rect>
                                    <rect id="Rectangle-Copy" x="14.2679609" y="0" width="1.94563104" height="31.5928003"></rect>
                                    <rect id="Rectangle-Copy-14" x="97.2815519" y="0" width="1.94563104" height="31.5928003"></rect>
                                    <rect id="Rectangle-Copy-7" x="55.1262127" y="0" width="1.94563104" height="31.5928003"></rect>
                                    <rect id="Rectangle-Copy-15" x="138.139804" y="0" width="1.94563104" height="31.5928003"></rect>
                                </g>
                            </g>
                            <g id="e926" transform="translate(2.787600, 0.000000)" fill="#7ED321" fill-rule="nonzero">
                                <path d="M41.034672,18.2977321 C40.428463,18.2977321 39.9510808,18.4795922 39.6025103,18.8433175 C39.2539403,19.2070428 39.079658,19.6768479 39.079658,20.2527462 L39.079658,21.9804331 C39.079658,24.4052686 38.6250082,26.6785181 37.7156946,28.8002497 C36.8063811,30.9219812 35.5636716,32.7708905 33.9875282,34.3470338 C32.4113849,35.9231772 30.5624757,37.1658867 28.4407441,38.0752002 C26.3190125,38.9845137 24.0457636,39.4391635 21.6209275,39.4391635 C21.6209275,39.4391635 21.6209275,39.4391635 21.6209275,39.4391635 C19.196092,39.4391635 16.9228425,38.9845137 14.801111,38.0752002 C12.6793794,37.1658867 10.8304701,35.9231772 9.25432681,34.3470338 C7.67818347,32.7708905 6.43547395,30.9219812 5.52616042,28.8002497 C4.61684688,26.6785181 4.1621971,24.4052686 4.1621971,21.9804331 C4.1621971,19.555597 4.61684688,17.2823481 5.52616042,15.1606165 C6.43547395,13.0388849 7.67818347,11.1899757 9.25432681,9.61383238 C10.8304701,8.03768904 12.6793794,6.79497951 14.801111,5.88566598 C16.9228425,4.97635245 19.196092,4.52170267 21.6209275,4.52170267 C21.6209275,4.52170267 21.6209275,4.52170267 21.6209275,4.52170267 C22.8939664,4.52170267 24.1139434,4.65809783 25.280896,4.93089166 C26.4478481,5.20368549 27.6223603,5.58256089 28.8044677,6.06752776 C29.2894345,6.2797008 29.7819721,6.29485614 30.2820949,6.1129932 C30.7822171,5.93113026 31.1232041,5.5977203 31.3050671,5.11275344 C31.5172401,4.62778657 31.5323954,4.13524901 31.3505325,3.6351268 C31.1686696,3.13500401 30.8352596,2.79401697 30.3502927,2.61215403 C28.9863224,2.00594501 27.5769082,1.52856279 26.1220065,1.17999284 C24.6671053,0.831422301 23.1667602,0.657139943 21.6209275,0.657139943 C21.6209275,0.657139943 21.6209275,0.657139943 21.6209275,0.657139943 C18.6505038,0.657139943 15.8771391,1.21787479 13.3007513,2.33936136 C10.6940529,3.43053725 8.42838104,4.94603711 6.50366717,6.88590575 C4.57895387,8.82577438 3.05587693,11.0838691 1.93439036,13.6602569 C0.843214466,16.2669553 0.297634378,19.0403195 0.297634378,21.9804331 C0.297634378,24.9508568 0.843214466,27.7242216 1.93439036,30.3006093 C3.05587693,32.9073078 4.57895387,35.1729796 6.50366717,37.0976935 C8.42838104,39.0224067 10.6940529,40.5454837 13.3007513,41.6669703 C15.8771391,42.7884568 18.6505038,43.3491917 21.6209275,43.3491917 C21.6209275,43.3491917 21.6209275,43.3491917 21.6209275,43.3491917 C24.5913513,43.3491917 27.364716,42.7884568 29.9411037,41.6669703 C32.5478022,40.5454837 34.813474,39.0224067 36.7381879,37.0976935 C38.6629012,35.1729796 40.1859781,32.9073078 41.3074647,30.3006093 C42.3986406,27.7242216 42.9442207,24.9508568 42.9442207,21.9804331 L42.9442207,20.2527462 C42.9442207,19.6768479 42.7699383,19.2070428 42.4213678,18.8433175 C42.0727978,18.4795922 41.6105704,18.2977321 41.034672,18.2977321 Z M44.308184,3.15773935 C43.914148,2.79401406 43.4594982,2.61215403 42.9442207,2.61215403 C42.4289431,2.61215403 41.9742933,2.79401406 41.5802574,3.15773935 L21.6209275,23.1625346 L17.165314,18.7069211 C16.7712781,18.3128852 16.3166283,18.1158704 15.8013507,18.1158704 C15.2860732,18.1158704 14.8314234,18.3128852 14.4373874,18.7069211 C14.0433514,19.1009571 13.8463366,19.5556069 13.8463366,20.0708845 C13.8463366,20.586162 14.0433514,21.0408118 14.4373874,21.4348478 L20.2569642,27.2544246 C20.4691373,27.4362875 20.7040398,27.5726821 20.9616783,27.6636136 C21.2193174,27.754545 21.4390646,27.8000099 21.6209275,27.8000099 C21.8027905,27.8000099 22.0225377,27.754545 22.2801768,27.6636136 C22.5378152,27.5726821 22.7727178,27.4362875 22.9848908,27.2544246 L44.308184,5.88566598 C44.70222,5.49163 44.8992348,5.03698022 44.8992348,4.52170267 C44.8992348,4.00642512 44.70222,3.55177533 44.308184,3.15773935 Z" id="Shape"></path>
                            </g>
                            <g id="Group-11" transform="translate(73.406801, 19.513200)" fill="#1F82FF" fill-opacity="0.200000018">
                                <rect id="Rectangle-13" x="0" y="0" width="104.999601" height="10.2212001" rx="5.11060004"></rect>
                            </g>
                            <g id="Group-11-Copy" transform="translate(198.848802, 19.513200)" fill="#1F82FF" fill-opacity="0.200000018">
                                <rect id="Rectangle-13" x="0" y="0" width="30.6636003" height="10.2212001" rx="5.11060004"></rect>
                            </g>
                            <g id="Group-11-Copy-2" transform="translate(240.662802, 19.513200)" fill="#1F82FF" fill-opacity="0.200000018">
                                <rect id="Rectangle-13" x="0" y="0" width="30.6636003" height="10.2212001" rx="5.11060004"></rect>
                            </g>
                        </g>
                    </g>
                </g>
                <g id="search-card" transform="translate(163.000000, 14.000000)">
                    <g id="Rectangle-12">
                        <use fill="black" fill-opacity="1" filter="url(#filter-9)" xlink:href="#path-8"></use>
                        <use fill="#FFFFFF" fill-rule="evenodd" xlink:href="#path-8"></use>
                    </g>
                    <g id="Rectangle-12-Copy">
                        <use fill="black" fill-opacity="1" filter="url(#filter-11)" xlink:href="#path-10"></use>
                        <use fill="#FFFFFF" fill-rule="evenodd" xlink:href="#path-10"></use>
                    </g>
                    <path d="M64.5236486,28.3393347 L68.864871,28.3393347 C71.9275142,28.3393347 74.217063,30.3761411 74.217063,33.8996676 C74.217063,37.423194 71.8829126,39.4600004 68.8351366,39.4600004 L64.5236486,39.4600004 L64.5236486,28.3393347 Z M65.8765638,29.4989763 L65.8765638,38.3003588 L68.8500038,38.3003588 C71.169287,38.3003588 72.8641478,36.7690372 72.8641478,33.8996676 C72.8641478,31.0302979 71.2138886,29.4989763 68.8797382,29.4989763 L65.8765638,29.4989763 Z M83.0630471,36.159482 L77.2053703,36.159482 C77.2797063,37.6164676 78.2460743,38.4936324 79.5841223,38.4936324 C80.6991623,38.4936324 81.4573895,37.9881476 81.7101319,37.1407172 L82.9887111,37.2150532 C82.6764999,38.5828356 81.3681863,39.6086724 79.6138567,39.6086724 C77.4432455,39.6086724 75.8524551,38.1368196 75.8524551,35.6688644 C75.8524551,33.2009091 77.4283783,31.7439235 79.5841223,31.7439235 C81.7547335,31.7439235 83.0630471,33.2157763 83.0630471,35.4607236 L83.0630471,36.159482 Z M79.5692551,32.8589635 C78.2609415,32.8589635 77.2945735,33.6469252 77.2053703,35.118778 L81.7844679,35.118778 C81.7547335,33.7955972 81.0113735,32.8589635 79.5692551,32.8589635 Z M88.0881608,39.4600004 L87.062324,39.4600004 L83.7766727,31.8777283 L85.1890567,31.8777283 L87.582676,37.5272644 L89.9316936,31.8777283 L91.3589448,31.8777283 L88.0881608,39.4600004 Z M93.45522,28.2947331 C93.9161032,28.2947331 94.3026504,28.6664131 94.3026504,29.1421635 C94.3026504,29.6030467 93.9161032,29.9747267 93.45522,29.9747267 C92.9794696,29.9747267 92.6077896,29.6030467 92.6077896,29.1421635 C92.6077896,28.6664131 92.9943368,28.2947331 93.45522,28.2947331 Z M94.0796424,39.4600004 L92.8010632,39.4600004 L92.8010632,31.8777283 L94.0796424,31.8777283 L94.0796424,39.4600004 Z M99.9075849,31.7439235 C101.691649,31.7439235 103.089166,32.8143619 103.312174,34.5835588 L102.063329,34.6876292 C101.929524,33.5428548 101.052359,32.8440963 99.9075849,32.8440963 C98.4952009,32.8440963 97.4842312,33.8699332 97.4842312,35.6688644 C97.4842312,37.4826628 98.5249353,38.4936324 99.9075849,38.4936324 C101.096961,38.4936324 101.89979,37.8394756 102.078196,36.7690372 L103.327041,36.8879748 C103.044564,38.5679684 101.73625,39.6086724 99.9075849,39.6086724 C97.7815753,39.6086724 96.1759176,38.166554 96.1759176,35.6688644 C96.1759176,33.1711747 97.7667081,31.7439235 99.9075849,31.7439235 Z M111.979751,36.159482 L106.122075,36.159482 C106.196411,37.6164676 107.162779,38.4936324 108.500827,38.4936324 C109.615867,38.4936324 110.374094,37.9881476 110.626836,37.1407172 L111.905415,37.2150532 C111.593204,38.5828356 110.284891,39.6086724 108.530561,39.6086724 C106.35995,39.6086724 104.769159,38.1368196 104.769159,35.6688644 C104.769159,33.2009091 106.345083,31.7439235 108.500827,31.7439235 C110.671438,31.7439235 111.979751,33.2157763 111.979751,35.4607236 L111.979751,36.159482 Z M108.485959,32.8589635 C107.177646,32.8589635 106.211278,33.6469252 106.122075,35.118778 L110.701172,35.118778 C110.671438,33.7955972 109.928078,32.8589635 108.485959,32.8589635 Z M116.39531,31.7587907 C118.090171,31.7439235 119.011937,32.7251587 119.175476,34.0334724 L117.896897,34.1078084 C117.807694,33.3495812 117.317076,32.8440963 116.350708,32.8589635 C115.38434,32.8440963 114.90859,33.2901124 114.90859,33.9591364 C114.90859,34.7619652 115.622215,34.821434 116.707521,35.0741764 C118.313179,35.4607236 119.339015,35.9067396 119.339015,37.2596548 C119.339015,38.761242 118.223975,39.6086724 116.469646,39.6086724 C114.759918,39.6086724 113.659745,38.761242 113.466471,37.3042564 L114.745051,37.2150532 C114.863988,38.0476164 115.488411,38.4936324 116.49938,38.4936324 C117.406279,38.4936324 118.060436,38.1219524 118.060436,37.3637252 C118.060436,36.5906308 117.554951,36.4122244 116.187169,36.085146 C114.715316,35.7432004 113.615143,35.4607236 113.615143,33.9740036 C113.615143,32.6508227 114.611246,31.7439235 116.39531,31.7587907 Z M125.672443,28.2947331 C126.133326,28.2947331 126.519873,28.6664131 126.519873,29.1421635 C126.519873,29.6030467 126.133326,29.9747267 125.672443,29.9747267 C125.196692,29.9747267 124.825012,29.6030467 124.825012,29.1421635 C124.825012,28.6664131 125.211559,28.2947331 125.672443,28.2947331 Z M126.296865,39.4600004 L125.018286,39.4600004 L125.018286,31.8777283 L126.296865,31.8777283 L126.296865,39.4600004 Z M132.48162,31.7439235 C134.191348,31.7439235 135.425326,32.9481667 135.425326,34.8511684 L135.425326,39.4600004 L134.13188,39.4600004 L134.13188,35.0147076 C134.13188,33.7509956 133.358785,32.9332995 132.214011,32.9332995 C131.009768,32.9332995 130.177204,33.8848004 130.177204,35.0295748 L130.177204,39.4600004 L128.898625,39.4600004 L128.898625,31.8777283 L130.117736,31.8777283 L130.117736,33.0076355 C130.489416,32.3237443 131.277377,31.7439235 132.48162,31.7439235 Z M145.401217,31.7439235 C147.482625,31.7439235 149.058548,33.2306435 149.058548,35.6688644 C149.058548,38.1219524 147.482625,39.6086724 145.401217,39.6086724 C144.122638,39.6086724 143.200872,39.058586 142.769723,38.3300932 L142.769723,43.2511364 L141.491144,43.2511364 L141.491144,31.8777283 L142.710254,31.8777283 L142.710254,33.1265731 C143.141403,32.3386115 144.092904,31.7439235 145.401217,31.7439235 Z M145.207944,32.8589635 C143.825294,32.8589635 142.78459,33.7361284 142.78459,35.4607236 L142.78459,35.9067396 C142.78459,37.6164676 143.825294,38.4936324 145.207944,38.4936324 C146.650062,38.4936324 147.750235,37.49753 147.750235,35.6837316 C147.750235,33.855066 146.650062,32.8589635 145.207944,32.8589635 Z M154.618881,31.7885251 L154.618881,33.0225027 C153.265966,33.0225027 152.418536,33.9442692 152.418536,35.1039108 L152.418536,39.4600004 L151.139957,39.4600004 L151.139957,31.8777283 L152.388801,31.8777283 L152.388801,33.0225027 C152.656411,32.3980803 153.370037,31.7885251 154.618881,31.7885251 Z M159.495323,31.7439235 C161.695669,31.7439235 163.390529,33.260378 163.390529,35.6688644 C163.390529,38.0773508 161.695669,39.6086724 159.495323,39.6086724 C157.294977,39.6086724 155.600117,38.0773508 155.600117,35.6688644 C155.600117,33.260378 157.294977,31.7439235 159.495323,31.7439235 Z M159.495323,32.8589635 C158.02347,32.8589635 156.893563,33.8996676 156.893563,35.6688644 C156.893563,37.4380612 158.02347,38.4936324 159.495323,38.4936324 C160.967176,38.4936324 162.097083,37.4380612 162.097083,35.6688644 C162.097083,33.8996676 160.967176,32.8589635 159.495323,32.8589635 Z M169.396878,31.7439235 C171.478286,31.7439235 173.05421,33.2306435 173.05421,35.6688644 C173.05421,38.1219524 171.478286,39.6086724 169.396878,39.6086724 C168.118299,39.6086724 167.196533,39.058586 166.765384,38.3300932 L166.765384,43.2511364 L165.486805,43.2511364 L165.486805,31.8777283 L166.705915,31.8777283 L166.705915,33.1265731 C167.137064,32.3386115 168.088565,31.7439235 169.396878,31.7439235 Z M169.203605,32.8589635 C167.820955,32.8589635 166.780251,33.7361284 166.780251,35.4607236 L166.780251,35.9067396 C166.780251,37.6164676 167.820955,38.4936324 169.203605,38.4936324 C170.645723,38.4936324 171.745896,37.49753 171.745896,35.6837316 C171.745896,33.855066 170.645723,32.8589635 169.203605,32.8589635 Z M181.840725,36.159482 L175.983048,36.159482 C176.057384,37.6164676 177.023752,38.4936324 178.3618,38.4936324 C179.47684,38.4936324 180.235067,37.9881476 180.48781,37.1407172 L181.766389,37.2150532 C181.454178,38.5828356 180.145864,39.6086724 178.391534,39.6086724 C176.220923,39.6086724 174.630133,38.1368196 174.630133,35.6688644 C174.630133,33.2009091 176.206056,31.7439235 178.3618,31.7439235 C180.532411,31.7439235 181.840725,33.2157763 181.840725,35.4607236 L181.840725,36.159482 Z M178.346933,32.8589635 C177.038619,32.8589635 176.072251,33.6469252 175.983048,35.118778 L180.562146,35.118778 C180.532411,33.7955972 179.789051,32.8589635 178.346933,32.8589635 Z M187.401058,31.7885251 L187.401058,33.0225027 C186.048142,33.0225027 185.200712,33.9442692 185.200712,35.1039108 L185.200712,39.4600004 L183.922133,39.4600004 L183.922133,31.8777283 L185.170978,31.8777283 L185.170978,33.0225027 C185.438587,32.3980803 186.152213,31.7885251 187.401058,31.7885251 Z M192.11396,38.4044292 C192.426171,38.4044292 192.678914,38.3598276 192.85732,38.3300932 L192.85732,39.4748676 C192.604578,39.5194692 192.307234,39.5640708 191.831483,39.5640708 C190.448834,39.5640708 189.482466,38.8504452 189.497333,37.1853188 L189.5122,32.9927683 L188.099816,32.9927683 L188.099816,31.8777283 L189.5122,31.8777283 L189.527067,29.2611011 L190.820514,29.2611011 L190.805646,31.8777283 L192.842453,31.8777283 L192.842453,32.9927683 L190.805646,32.9927683 L190.775912,36.9325764 C190.775912,38.0327492 191.3706,38.4044292 192.11396,38.4044292 Z M196.083503,43.2511364 L194.671118,43.2511364 L196.47005,39.0437188 L193.452008,31.8777283 L194.879259,31.8777283 L197.168808,37.6016004 L199.44349,31.8777283 L200.870741,31.8777283 L196.083503,43.2511364 Z" id="Devices-in-property" fill="#1F82FF"></path>
                    <path d="M73.0722886,109.454779 L68.939207,109.454779 L68.939207,119.371201 L67.5714246,119.371201 L67.5714246,109.454779 L63.438343,109.454779 L63.438343,108.250535 L73.0722886,108.250535 L73.0722886,109.454779 Z M76.6850183,111.699726 L76.6850183,112.933703 C75.3321031,112.933703 74.4846726,113.85547 74.4846726,115.015111 L74.4846726,119.371201 L73.2060934,119.371201 L73.2060934,111.788929 L74.4549382,111.788929 L74.4549382,112.933703 C74.7225478,112.309281 75.4361735,111.699726 76.6850183,111.699726 Z M80.8924359,111.655124 C82.7657031,111.655124 83.7915399,112.725563 83.7915399,114.59883 L83.7915399,119.371201 L82.4980935,119.371201 L82.4980935,118.479169 C81.9480071,119.133326 81.1749127,119.519873 80.2382791,119.519873 C78.7664263,119.519873 77.7554567,118.746779 77.7554567,117.364129 C77.7554567,115.788206 78.9448327,115.193518 80.5356231,115.104315 L82.4980935,114.985377 L82.4980935,114.628564 C82.4980935,113.48379 81.9926087,112.785031 80.9073031,112.785031 C79.7773959,112.785031 79.2570439,113.558126 79.2570439,114.360955 L77.9635975,114.301486 C77.9635975,112.993172 79.0489031,111.655124 80.8924359,111.655124 Z M82.5129607,116.011214 L80.6991623,116.130151 C79.7179271,116.18962 79.0489031,116.501831 79.0489031,117.334395 C79.0489031,118.137223 79.6287239,118.4197 80.4315527,118.4197 C81.5763271,118.4197 82.5129607,117.839879 82.5129607,116.323425 L82.5129607,116.011214 Z M90.2290376,111.655124 C92.3104456,111.655124 93.8863688,113.141844 93.8863688,115.580065 C93.8863688,118.033153 92.3104456,119.519873 90.2290376,119.519873 C88.9504584,119.519873 88.028692,118.969787 87.5975432,118.241294 L87.5975432,123.162337 L86.318964,123.162337 L86.318964,111.788929 L87.5380744,111.788929 L87.5380744,113.037774 C87.9692232,112.249812 88.920724,111.655124 90.2290376,111.655124 Z M90.035764,112.770164 C88.6531144,112.770164 87.6124104,113.647329 87.6124104,115.371924 L87.6124104,115.81794 C87.6124104,117.527668 88.6531144,118.404833 90.035764,118.404833 C91.4778824,118.404833 92.5780552,117.408731 92.5780552,115.594932 C92.5780552,113.766267 91.4778824,112.770164 90.035764,112.770164 Z M106.09234,111.179374 L107.772334,111.179374 L107.445255,112.517422 L105.765262,112.517422 L105.140839,115.148916 L106.880302,115.148916 L106.568091,116.486964 L104.828628,116.486964 L104.144737,119.371201 L102.672884,119.371201 L103.371642,116.486964 L101.438906,116.486964 L100.755015,119.371201 L99.2831625,119.371201 L99.9670537,116.486964 L98.3167945,116.486964 L98.6290057,115.148916 L100.294132,115.148916 L100.918554,112.517422 L99.1939593,112.517422 L99.5210377,111.179374 L101.230766,111.179374 L101.944391,108.250535 L103.401377,108.250535 L102.702618,111.179374 L104.620487,111.179374 L105.334113,108.250535 L106.791099,108.250535 L106.09234,111.179374 Z M102.37554,112.517422 L101.751118,115.148916 L103.683854,115.148916 L104.308276,112.517422 L102.37554,112.517422 Z M112.277095,119.371201 L110.522766,119.371201 L110.522766,110.584686 L108.827905,111.833531 L107.980475,110.436014 L110.983649,108.250535 L112.277095,108.250535 L112.277095,119.371201 Z M117.644155,108.101863 C119.74043,108.101863 120.929806,109.261505 120.929806,111.238843 C120.929806,113.082375 119.978305,114.346087 118.833531,115.580065 L116.76699,117.795278 L121.033876,117.795278 L121.033876,119.371201 L114.328769,119.371201 L114.328769,117.914215 L117.525217,114.494759 C118.699726,113.245915 119.160609,112.606625 119.160609,111.313179 C119.160609,110.317076 118.640257,109.677787 117.688756,109.677787 C116.588583,109.677787 116.083099,110.391412 116.068231,111.610523 L114.299035,111.506452 C114.328769,109.380443 115.547879,108.101863 117.644155,108.101863 Z M124.423598,114.806971 L127.382171,111.744327 L129.418977,111.744327 L126.356334,115.029979 L129.731188,119.371201 L127.620046,119.371201 L125.181825,116.278823 L124.423598,117.051918 L124.423598,119.371201 L122.758471,119.371201 L122.758471,107.819387 L124.423598,107.819387 L124.423598,114.806971 Z M133.96834,108.101863 C136.049748,108.101863 137.283726,109.320974 137.283726,111.238843 C137.283726,112.502555 136.614702,113.245915 135.811873,113.617595 C136.763374,113.885204 137.521601,114.792103 137.521601,116.159886 C137.521601,118.256161 136.09435,119.519873 133.998075,119.519873 C131.73826,119.519873 130.51915,118.241294 130.41508,116.204487 L132.184276,116.100417 C132.27348,117.260059 132.868168,117.94395 133.983208,117.94395 C135.098248,117.94395 135.737537,117.274926 135.737537,116.130151 C135.737537,114.97051 134.964443,114.420423 133.86427,114.420423 L132.74923,114.420423 L132.74923,112.8445 L133.834536,112.8445 C134.771169,112.8445 135.499662,112.249812 135.499662,111.238843 C135.499662,110.213006 134.919841,109.677787 133.96834,109.677787 C132.987105,109.677787 132.392417,110.302209 132.332948,111.402382 L130.578619,111.313179 C130.638088,109.320974 131.842331,108.101863 133.96834,108.101863 Z M142.293972,108.101863 C144.390248,108.101863 145.579624,109.261505 145.579624,111.238843 C145.579624,113.082375 144.628123,114.346087 143.483348,115.580065 L141.416808,117.795278 L145.683694,117.795278 L145.683694,119.371201 L138.978587,119.371201 L138.978587,117.914215 L142.175035,114.494759 C143.349544,113.245915 143.810427,112.606625 143.810427,111.313179 C143.810427,110.317076 143.290075,109.677787 142.338574,109.677787 C141.238401,109.677787 140.732916,110.391412 140.718049,111.610523 L138.948852,111.506452 C138.978587,109.380443 140.197697,108.101863 142.293972,108.101863 Z M150.634472,108.101863 C152.81995,108.101863 154.455342,109.529115 154.455342,111.759195 C154.455342,112.695828 154.157998,113.424321 153.667381,114.108212 L149.831643,119.371201 L147.7205,119.371201 L150.58987,115.461127 C148.434126,115.431393 146.828468,113.95954 146.828468,111.759195 C146.828468,109.529115 148.46386,108.101863 150.634472,108.101863 Z M150.634472,113.914939 C151.318363,113.914939 151.883317,113.677063 152.240129,113.201313 C152.507739,112.8445 152.656411,112.398484 152.656411,111.818663 C152.656411,110.495483 151.823848,109.677787 150.634472,109.677787 C149.459963,109.677787 148.612532,110.495483 148.612532,111.818663 C148.612532,113.141844 149.459963,113.914939 150.634472,113.914939 Z M159.242581,108.101863 C161.323989,108.101863 162.557966,109.320974 162.557966,111.238843 C162.557966,112.502555 161.888942,113.245915 161.086113,113.617595 C162.037614,113.885204 162.795841,114.792103 162.795841,116.159886 C162.795841,118.256161 161.36859,119.519873 159.272315,119.519873 C157.012501,119.519873 155.79339,118.241294 155.68932,116.204487 L157.458517,116.100417 C157.54772,117.260059 158.142408,117.94395 159.257448,117.94395 C160.372488,117.94395 161.011777,117.274926 161.011777,116.130151 C161.011777,114.97051 160.238683,114.420423 159.13851,114.420423 L158.02347,114.420423 L158.02347,112.8445 L159.108776,112.8445 C160.045409,112.8445 160.773902,112.249812 160.773902,111.238843 C160.773902,110.213006 160.194081,109.677787 159.242581,109.677787 C158.261345,109.677787 157.666657,110.302209 157.607189,111.402382 L155.852859,111.313179 C155.912328,109.320974 157.116571,108.101863 159.242581,108.101863 Z M167.95476,108.101863 C169.91723,108.101863 171.418817,109.231771 171.418817,111.149639 C171.418817,112.249812 170.868731,113.037774 170.051035,113.468923 C171.03227,113.944673 171.701294,114.881307 171.701294,116.174753 C171.701294,118.256161 170.095637,119.519873 167.969627,119.519873 C165.843617,119.519873 164.23796,118.256161 164.23796,116.174753 C164.23796,114.896174 164.892117,113.95954 165.873352,113.48379 C165.040789,113.052641 164.505569,112.249812 164.505569,111.149639 C164.505569,109.231771 165.977422,108.101863 167.95476,108.101863 Z M167.969627,109.677787 C167.018126,109.677787 166.274766,110.24274 166.274766,111.238843 C166.274766,112.205211 167.018126,112.770164 167.969627,112.770164 C168.935995,112.770164 169.664488,112.205211 169.664488,111.238843 C169.664488,110.24274 168.935995,109.677787 167.969627,109.677787 Z M167.95476,114.316353 C166.854587,114.316353 165.992289,114.97051 165.992289,116.130151 C165.992289,117.274926 166.854587,117.94395 167.95476,117.94395 C169.084667,117.94395 169.932097,117.274926 169.932097,116.130151 C169.932097,114.97051 169.084667,114.316353 167.95476,114.316353 Z M181.81099,119.371201 L180.472942,119.371201 L178.659144,114.539361 L176.830478,119.371201 L175.507298,119.371201 L172.593326,111.744327 L174.392258,111.744327 L176.220923,116.650503 L178.064456,111.744327 L179.238965,111.744327 L181.097365,116.650503 L182.92603,111.744327 L184.724962,111.744327 L181.81099,119.371201 Z M192.232898,108.250535 L189.363528,112.160609 C191.519272,112.190343 193.12493,113.662196 193.12493,115.862542 C193.12493,118.092622 191.489538,119.519873 189.318926,119.519873 C187.133448,119.519873 185.498056,118.092622 185.498056,115.862542 C185.498056,114.925908 185.7954,114.197415 186.286018,113.513524 L190.121755,108.250535 L192.232898,108.250535 Z M189.318926,117.94395 C190.493435,117.94395 191.340866,117.126254 191.340866,115.803073 C191.340866,114.479892 190.493435,113.706798 189.318926,113.706798 C188.635035,113.706798 188.070082,113.944673 187.713269,114.420423 C187.445659,114.777236 187.296987,115.223252 187.296987,115.803073 C187.296987,117.126254 188.12955,117.94395 189.318926,117.94395 Z" id="Trap-#12k32938w6" fill="#445366"></path>
                    <path d="M73.0722886,157.773179 L68.939207,157.773179 L68.939207,167.689602 L67.5714246,167.689602 L67.5714246,157.773179 L63.438343,157.773179 L63.438343,156.568936 L73.0722886,156.568936 L73.0722886,157.773179 Z M76.6850183,160.018126 L76.6850183,161.252104 C75.3321031,161.252104 74.4846726,162.17387 74.4846726,163.333512 L74.4846726,167.689602 L73.2060934,167.689602 L73.2060934,160.107329 L74.4549382,160.107329 L74.4549382,161.252104 C74.7225478,160.627681 75.4361735,160.018126 76.6850183,160.018126 Z M80.8924359,159.973525 C82.7657031,159.973525 83.7915399,161.043963 83.7915399,162.91723 L83.7915399,167.689602 L82.4980935,167.689602 L82.4980935,166.79757 C81.9480071,167.451726 81.1749127,167.838274 80.2382791,167.838274 C78.7664263,167.838274 77.7554567,167.065179 77.7554567,165.68253 C77.7554567,164.106606 78.9448327,163.511918 80.5356231,163.422715 L82.4980935,163.303777 L82.4980935,162.946965 C82.4980935,161.80219 81.9926087,161.103432 80.9073031,161.103432 C79.7773959,161.103432 79.2570439,161.876526 79.2570439,162.679355 L77.9635975,162.619886 C77.9635975,161.311573 79.0489031,159.973525 80.8924359,159.973525 Z M82.5129607,164.329614 L80.6991623,164.448552 C79.7179271,164.508021 79.0489031,164.820232 79.0489031,165.652795 C79.0489031,166.455624 79.6287239,166.738101 80.4315527,166.738101 C81.5763271,166.738101 82.5129607,166.15828 82.5129607,164.641825 L82.5129607,164.329614 Z M90.2290376,159.973525 C92.3104456,159.973525 93.8863688,161.460245 93.8863688,163.898465 C93.8863688,166.351554 92.3104456,167.838274 90.2290376,167.838274 C88.9504584,167.838274 88.028692,167.288187 87.5975432,166.559694 L87.5975432,171.480738 L86.318964,171.480738 L86.318964,160.107329 L87.5380744,160.107329 L87.5380744,161.356174 C87.9692232,160.568213 88.920724,159.973525 90.2290376,159.973525 Z M90.035764,161.088565 C88.6531144,161.088565 87.6124104,161.965729 87.6124104,163.690325 L87.6124104,164.136341 C87.6124104,165.846069 88.6531144,166.723234 90.035764,166.723234 C91.4778824,166.723234 92.5780552,165.727131 92.5780552,163.913333 C92.5780552,162.084667 91.4778824,161.088565 90.035764,161.088565 Z M106.09234,159.497774 L107.772334,159.497774 L107.445255,160.835822 L105.765262,160.835822 L105.140839,163.467317 L106.880302,163.467317 L106.568091,164.805365 L104.828628,164.805365 L104.144737,167.689602 L102.672884,167.689602 L103.371642,164.805365 L101.438906,164.805365 L100.755015,167.689602 L99.2831625,167.689602 L99.9670537,164.805365 L98.3167945,164.805365 L98.6290057,163.467317 L100.294132,163.467317 L100.918554,160.835822 L99.1939593,160.835822 L99.5210377,159.497774 L101.230766,159.497774 L101.944391,156.568936 L103.401377,156.568936 L102.702618,159.497774 L104.620487,159.497774 L105.334113,156.568936 L106.791099,156.568936 L106.09234,159.497774 Z M102.37554,160.835822 L101.751118,163.467317 L103.683854,163.467317 L104.308276,160.835822 L102.37554,160.835822 Z M112.30683,156.420264 C114.492308,156.420264 116.1277,157.847515 116.1277,160.077595 C116.1277,161.014229 115.830356,161.742721 115.339739,162.426613 L111.504001,167.689602 L109.392859,167.689602 L112.262228,163.779528 C110.106484,163.749793 108.500827,162.277941 108.500827,160.077595 C108.500827,157.847515 110.136219,156.420264 112.30683,156.420264 Z M112.30683,162.233339 C112.990721,162.233339 113.555675,161.995464 113.912487,161.519713 C114.180097,161.162901 114.328769,160.716885 114.328769,160.137064 C114.328769,158.813883 113.496206,157.996187 112.30683,157.996187 C111.132321,157.996187 110.284891,158.813883 110.284891,160.137064 C110.284891,161.460245 111.132321,162.233339 112.30683,162.233339 Z M121.271751,156.063451 C121.554228,156.063451 121.732635,156.078318 121.925908,156.108053 L121.925908,157.550171 C121.792103,157.535304 121.658299,157.520437 121.450158,157.520437 C120.602727,157.520437 120.022907,158.070523 120.022907,158.962555 L120.022907,160.062728 L121.896174,160.062728 L121.896174,161.504846 L120.022907,161.504846 L120.022907,167.689602 L118.35778,167.689602 L118.35778,161.504846 L116.915662,161.504846 L116.915662,160.062728 L118.35778,160.062728 L118.35778,159.007157 C118.35778,157.178491 119.502555,156.063451 121.271751,156.063451 Z M126.936155,156.420264 C129.374376,156.420264 131.024635,158.442203 131.024635,162.129269 C131.024635,165.801467 129.374376,167.838274 126.936155,167.838274 C124.483067,167.838274 122.832807,165.801467 122.832807,162.129269 C122.832807,158.442203 124.483067,156.420264 126.936155,156.420264 Z M126.936155,157.996187 C125.404833,157.996187 124.631739,159.423438 124.631739,162.129269 C124.631739,164.835099 125.404833,166.26235 126.936155,166.26235 C128.452609,166.26235 129.225704,164.835099 129.225704,162.129269 C129.225704,159.423438 128.452609,157.996187 126.936155,157.996187 Z M135.871342,156.420264 C137.95275,156.420264 139.186728,157.639374 139.186728,159.557243 C139.186728,160.820955 138.517704,161.564315 137.714875,161.935995 C138.666376,162.203605 139.424603,163.110504 139.424603,164.478286 C139.424603,166.574562 137.997352,167.838274 135.901076,167.838274 C133.641262,167.838274 132.422152,166.559694 132.318081,164.522888 L134.087278,164.418817 C134.176481,165.578459 134.771169,166.26235 135.886209,166.26235 C137.001249,166.26235 137.640539,165.593326 137.640539,164.448552 C137.640539,163.28891 136.867444,162.738824 135.767272,162.738824 L134.652232,162.738824 L134.652232,161.162901 L135.737537,161.162901 C136.674171,161.162901 137.402664,160.568213 137.402664,159.557243 C137.402664,158.531406 136.822843,157.996187 135.871342,157.996187 C134.890107,157.996187 134.295419,158.620609 134.23595,159.720782 L132.48162,159.631579 C132.541089,157.639374 133.745332,156.420264 135.871342,156.420264 Z M142.130433,156.375662 C142.710254,156.375662 143.186004,156.836545 143.186004,157.416366 C143.186004,157.996187 142.710254,158.45707 142.130433,158.45707 C141.550612,158.45707 141.089729,157.996187 141.089729,157.416366 C141.089729,156.836545 141.550612,156.375662 142.130433,156.375662 Z M142.977864,160.062728 L142.977864,168.641102 C142.977864,170.469768 141.862824,171.569941 140.138228,171.569941 C139.855752,171.569941 139.677345,171.555074 139.469204,171.525339 L139.469204,170.068354 C139.603009,170.098088 139.736814,170.112955 139.944955,170.112955 C140.762651,170.112955 141.312737,169.592603 141.312737,168.685704 L141.312737,160.062728 L142.977864,160.062728 Z M148.538196,160.761486 C150.470933,160.761486 151.898184,162.010331 151.898184,164.225544 C151.898184,166.381288 150.545269,167.838274 148.300321,167.838274 C146.12971,167.838274 144.880865,166.589429 144.776795,164.641825 L146.545992,164.537755 C146.635195,165.608194 147.215016,166.26235 148.315188,166.26235 C149.504565,166.26235 150.128987,165.429787 150.128987,164.270145 C150.128987,163.080769 149.445096,162.337409 148.35979,162.337409 C147.735368,162.337409 147.24475,162.530683 146.798734,162.872629 L145.163342,162.872629 L145.163342,156.568936 L151.467035,156.568936 L151.467035,158.129992 L146.917672,158.129992 L146.917672,161.162901 C147.34882,160.910158 147.88404,160.761486 148.538196,160.761486 Z M156.209672,159.928923 C158.02347,159.928923 158.989838,160.999361 159.13851,162.352277 L157.473384,162.44148 C157.413915,161.80219 157.012501,161.356174 156.16507,161.356174 C155.377109,161.356174 154.975694,161.683253 154.975694,162.203605 C154.975694,162.857761 155.629851,162.91723 156.640821,163.155105 C158.216744,163.55652 159.272315,164.03227 159.272315,165.400053 C159.272315,166.931374 158.142408,167.838274 156.284008,167.838274 C154.455342,167.838274 153.340302,166.916507 153.161896,165.400053 L154.827022,165.295982 C154.916225,165.994741 155.406843,166.396155 156.313742,166.396155 C157.071969,166.396155 157.607189,166.098811 157.607189,165.533858 C157.607189,164.909435 157.205774,164.760763 155.956929,164.463419 C154.410741,164.091739 153.310568,163.764661 153.310568,162.233339 C153.310568,160.865557 154.366139,159.928923 156.209672,159.928923 Z M164.446101,156.420264 C166.631579,156.420264 168.266971,157.847515 168.266971,160.077595 C168.266971,161.014229 167.969627,161.742721 167.479009,162.426613 L163.643272,167.689602 L161.532129,167.689602 L164.401499,163.779528 C162.245755,163.749793 160.640097,162.277941 160.640097,160.077595 C160.640097,157.847515 162.275489,156.420264 164.446101,156.420264 Z M164.446101,162.233339 C165.129992,162.233339 165.694945,161.995464 166.051758,161.519713 C166.319368,161.162901 166.46804,160.716885 166.46804,160.137064 C166.46804,158.813883 165.635477,157.996187 164.446101,157.996187 C163.271592,157.996187 162.424161,158.813883 162.424161,160.137064 C162.424161,161.460245 163.271592,162.233339 164.446101,162.233339 Z M173.024475,156.420264 C175.12075,156.420264 176.310126,157.579905 176.310126,159.557243 C176.310126,161.400776 175.358626,162.664488 174.213851,163.898465 L172.14731,166.113678 L176.414197,166.113678 L176.414197,167.689602 L169.709089,167.689602 L169.709089,166.232616 L172.905538,162.81316 C174.080046,161.564315 174.54093,160.925025 174.54093,159.631579 C174.54093,158.635477 174.020578,157.996187 173.069077,157.996187 C171.968904,157.996187 171.463419,158.709813 171.448552,159.928923 L169.679355,159.824853 C169.709089,157.698843 170.9282,156.420264 173.024475,156.420264 Z M181.424443,156.420264 C183.386914,156.420264 184.888501,157.550171 184.888501,159.46804 C184.888501,160.568213 184.338414,161.356174 183.520718,161.787323 C184.501954,162.263073 185.170978,163.199707 185.170978,164.493153 C185.170978,166.574562 183.56532,167.838274 181.43931,167.838274 C179.313301,167.838274 177.707643,166.574562 177.707643,164.493153 C177.707643,163.214574 178.3618,162.277941 179.343035,161.80219 C178.510472,161.371041 177.975253,160.568213 177.975253,159.46804 C177.975253,157.550171 179.447106,156.420264 181.424443,156.420264 Z M181.43931,157.996187 C180.48781,157.996187 179.74445,158.561141 179.74445,159.557243 C179.74445,160.523611 180.48781,161.088565 181.43931,161.088565 C182.405678,161.088565 183.134171,160.523611 183.134171,159.557243 C183.134171,158.561141 182.405678,157.996187 181.43931,157.996187 Z M181.424443,162.634753 C180.32427,162.634753 179.461973,163.28891 179.461973,164.448552 C179.461973,165.593326 180.32427,166.26235 181.424443,166.26235 C182.55435,166.26235 183.401781,165.593326 183.401781,164.448552 C183.401781,163.28891 182.55435,162.634753 181.424443,162.634753 Z M190.077154,156.420264 C192.158562,156.420264 193.392539,157.639374 193.392539,159.557243 C193.392539,160.820955 192.723515,161.564315 191.920686,161.935995 C192.872187,162.203605 193.630414,163.110504 193.630414,164.478286 C193.630414,166.574562 192.203163,167.838274 190.106888,167.838274 C187.847074,167.838274 186.627963,166.559694 186.523893,164.522888 L188.29309,164.418817 C188.382293,165.578459 188.976981,166.26235 190.092021,166.26235 C191.207061,166.26235 191.84635,165.593326 191.84635,164.448552 C191.84635,163.28891 191.073256,162.738824 189.973083,162.738824 L188.858043,162.738824 L188.858043,161.162901 L189.943349,161.162901 C190.879982,161.162901 191.608475,160.568213 191.608475,159.557243 C191.608475,158.531406 191.028654,157.996187 190.077154,157.996187 C189.095918,157.996187 188.50123,158.620609 188.441762,159.720782 L186.687432,159.631579 C186.746901,157.639374 187.951144,156.420264 190.077154,156.420264 Z M201.688437,156.568936 L198.819067,160.479009 C200.974811,160.508744 202.580469,161.980597 202.580469,164.180942 C202.580469,166.411022 200.945077,167.838274 198.774466,167.838274 C196.588987,167.838274 194.953595,166.411022 194.953595,164.180942 C194.953595,163.244309 195.250939,162.515816 195.741557,161.831925 L199.577295,156.568936 L201.688437,156.568936 Z M198.774466,166.26235 C199.948975,166.26235 200.796405,165.444654 200.796405,164.121473 C200.796405,162.798293 199.948975,162.025198 198.774466,162.025198 C198.090575,162.025198 197.525621,162.263073 197.168808,162.738824 C196.901199,163.095637 196.752527,163.541653 196.752527,164.121473 C196.752527,165.444654 197.58509,166.26235 198.774466,166.26235 Z M210.831765,157.996187 L205.999925,167.689602 L204.052322,167.689602 L208.884162,158.129992 L203.517103,158.129992 L203.517103,156.568936 L210.831765,156.568936 L210.831765,157.996187 Z" id="Trap-#9f03j5s928367" fill="#445366"></path>
                    <path d="M50.6250796,45.6146789 L43.5222486,38.5035211 C44.3854443,37.4170888 45.0759905,36.1454882 45.5939077,34.6886812 C46.1118248,33.2318742 46.3707798,31.7133609 46.3707798,30.1330957 C46.3707798,28.2812222 46.0131755,26.5404875 45.2979564,24.9108391 C44.6073997,23.2811907 43.6517332,21.8614424 42.4309285,20.6515519 C41.2101232,19.4416614 39.7858716,18.4787016 38.1581315,17.762644 C36.5303913,17.0712778 34.791695,16.7256001 32.94199,16.7256001 C31.0922849,16.7256001 29.3535886,17.0712778 27.7258485,17.762644 C26.0981083,18.4787016 24.6738567,19.4416614 23.4530515,20.6515519 C22.2322467,21.8614424 21.2765802,23.2811907 20.5860236,24.9108391 C19.8708045,26.5404875 19.5132002,28.2812222 19.5132002,30.1330957 C19.5132002,32.0096606 19.8708045,33.7627411 20.5860236,35.3923895 C21.2765802,37.0220379 22.2322467,38.4417863 23.4530515,39.6516768 C24.6738567,40.8615673 26.0981083,41.8245271 27.7258485,42.5405847 C29.3535886,43.2319509 31.0922849,43.5776285 32.94199,43.5776285 C34.5204048,43.5776285 36.0124775,43.3183699 37.4182533,42.7998456 C38.824029,42.2813213 40.1188031,41.5899656 41.3026139,40.7257579 L48.4054449,47.8369158 C48.578084,48.0097572 48.7692174,48.1332135 48.9788503,48.2072886 C49.1884837,48.2813636 49.3672857,48.3184004 49.5152623,48.3184004 C49.6632388,48.3184004 49.8420408,48.2813636 50.0516742,48.2072886 C50.2613072,48.1332135 50.4524406,48.0097572 50.6250796,47.8369158 C50.9456952,47.5159243 51.1060004,47.1455553 51.1060004,46.7257974 C51.1060004,46.3060395 50.9456952,45.9356704 50.6250796,45.6146789 Z M22.6946765,30.1330957 C22.6946765,28.7256719 22.9536316,27.3923431 23.4715487,26.1330694 C24.0141287,24.8984871 24.7478341,23.8120714 25.6726862,22.8737887 C26.5975387,21.935506 27.6888484,21.2071135 28.9466476,20.6885892 C30.1797842,20.145373 31.5115518,19.873769 32.94199,19.873769 C34.3724282,19.873769 35.7041957,20.145373 36.9373324,20.6885892 C38.1951315,21.2071135 39.2864413,21.935506 40.2112938,22.8737887 C41.1361458,23.8120714 41.8698512,24.8984871 42.4124313,26.1330694 C42.9303484,27.3923431 43.1893034,28.7256719 43.1893034,30.1330957 C43.1893034,31.5652108 42.9303484,32.8985396 42.4124313,34.133122 C41.8945142,35.3677043 41.154643,36.4664659 40.1927966,37.42944 C40.1927966,37.42944 40.1927966,37.42944 40.1927966,37.42944 C40.1927966,37.42944 40.1927966,37.42944 40.1927966,37.42944 C39.2556126,38.3677226 38.1704691,39.1022877 36.9373324,39.6331579 C35.7041957,40.1640286 34.3724282,40.4294597 32.94199,40.4294597 C31.5115518,40.4294597 30.1797842,40.1578556 28.9466476,39.6146395 C27.6888484,39.0714234 26.5975387,38.3368578 25.6726862,37.4109211 C24.7478341,36.4849848 24.0141287,35.3923957 23.4715487,34.133122 C22.9536316,32.8985396 22.6946765,31.5652108 22.6946765,30.1330957 Z" id="Shape" fill="#C1C7CD" fill-rule="nonzero"></path>
                    <rect id="Rectangle-2" fill="#464B50" x="204.424002" y="21.3716002" width="1" height="22.3008002"></rect>
                    <g id="Shape" transform="translate(13.008800, 94.778401)">
                        <mask id="mask-13" fill="white">
                            <use xlink:href="#path-12"></use>
                        </mask>
                        <use id="Mask" fill="#DEECFF" xlink:href="#path-12"></use>
                    </g>
                    <g id="Shape-Copy" transform="translate(13.008800, 143.096801)">
                        <mask id="mask-15" fill="white">
                            <use xlink:href="#path-14"></use>
                        </mask>
                        <use id="Mask" fill="#DEECFF" xlink:href="#path-14"></use>
                    </g>
                </g>
                <g id="id-number-card">
                    <g id="Group-22-Copy-3">
                        <g id="Rectangle-14">
                            <use fill="black" fill-opacity="1" filter="url(#filter-17)" xlink:href="#path-16"></use>
                            <use fill="#FFFFFF" fill-rule="evenodd" xlink:href="#path-16"></use>
                        </g>
                    </g>
                    <g id="Shape" transform="translate(35.309600, 41.814000)">
                        <mask id="mask-19" fill="white">
                            <use xlink:href="#path-18"></use>
                        </mask>
                        <use id="Mask" fill="#DEECFF" xlink:href="#path-18"></use>
                    </g>
                    <path d="M39.4110891,167.142227 L36.8557891,167.142227 L36.8557891,173.397601 L35.2817243,173.397601 L35.2817243,167.142227 L32.7162031,167.142227 L32.7162031,165.752144 L39.4110891,165.752144 L39.4110891,167.142227 Z M45.2836332,173.397601 L43.791338,170.648099 L42.513688,170.648099 L42.513688,173.397601 L40.929402,173.397601 L40.929402,165.752144 L44.200186,165.752144 C45.6515964,165.752144 46.6634952,166.631167 46.6634952,168.205232 C46.6634952,169.268237 46.19332,170.024605 45.4369512,170.392569 L47.062122,173.397601 L45.2836332,173.397601 Z M42.5034668,169.247794 L44.0059832,169.247794 C44.6192552,169.247794 45.0587668,168.879831 45.0587668,168.205232 C45.0587668,167.51019 44.6192552,167.142227 44.0059832,167.142227 L42.5034668,167.142227 L42.5034668,169.247794 Z M55.9294778,173.397601 L54.1918737,173.397601 L53.5683805,171.925749 L50.3895873,171.925749 L49.7558729,173.397601 L48.0284901,173.397601 L51.3094953,165.752144 L52.6382513,165.752144 L55.9294778,173.397601 Z M50.9517533,170.637877 L53.0164357,170.637877 L51.9840945,168.195011 L50.9517533,170.637877 Z M57.3353574,165.752144 L60.6470262,165.752144 C62.0984366,165.752144 63.1103355,166.641388 63.1103355,168.215453 C63.1103355,169.789518 62.0984366,170.678762 60.6470262,170.678762 L58.9196434,170.678762 L58.9196434,173.397601 L57.3353574,173.397601 L57.3353574,165.752144 Z M58.9094222,167.142227 L58.9094222,169.278458 L60.4426022,169.278458 C61.0558742,169.278458 61.505607,168.910495 61.505607,168.215453 C61.505607,167.520411 61.0558742,167.142227 60.4426022,167.142227 L58.9094222,167.142227 Z M72.5045476,167.643066 L73.5879948,167.643066 L73.3018012,168.828725 L72.218354,168.828725 L71.8503908,170.372126 L72.9542804,170.372126 L72.678308,171.557785 L71.5744184,171.557785 L71.1349068,173.397601 L69.8879204,173.397601 L70.327432,171.557785 L69.1826576,171.557785 L68.7533672,173.397601 L67.4961596,173.397601 L67.9356712,171.557785 L66.8726664,171.557785 L67.1486388,170.372126 L68.2218648,170.372126 L68.5796068,168.828725 L67.4961596,168.828725 L67.7823532,167.643066 L68.8658004,167.643066 L69.3257544,165.752144 L70.5727408,165.752144 L70.1127868,167.643066 L71.24734,167.643066 L71.707294,165.752144 L72.9542804,165.752144 L72.5045476,167.643066 Z M69.8265932,168.828725 L69.4688512,170.372126 L70.6034044,170.372126 L70.9713676,168.828725 L69.8265932,168.828725 Z M77.4469625,173.397601 L75.8728977,173.397601 L75.8728977,167.735057 L74.9018837,168.419877 L74.2068421,167.172891 L76.2919669,165.752144 L77.4469625,165.752144 L77.4469625,173.397601 Z M81.6227874,165.639711 C83.0946402,165.639711 83.9634422,166.416522 83.9634422,167.816826 C83.9634422,169.074034 83.3092854,169.89173 82.5938014,170.65832 L81.3365938,171.997297 L84.004327,171.997297 L84.004327,173.397601 L79.2821325,173.397601 L79.2821325,172.160836 L81.3876998,169.840624 C82.1236262,169.04337 82.3791562,168.644743 82.3791562,167.888375 C82.3791562,167.356872 82.113405,167.040015 81.653451,167.040015 C81.0810638,167.040015 80.8561974,167.438642 80.8459762,168.113241 L79.2719113,168.02125 C79.2923537,166.539176 80.1407133,165.639711 81.6227874,165.639711 Z M89.2227143,168.879831 L92.1561987,173.397601 L90.2959403,173.397601 L88.1699307,170.14726 L87.2295802,171.281813 L87.2295802,173.397601 L85.6452942,173.397601 L85.6452942,165.752144 L87.2295802,165.752144 L87.2295802,168.910495 L89.8257651,165.752144 L91.8495627,165.752144 L89.2227143,168.879831 Z M95.6778668,165.639711 C97.1906044,165.639711 98.0491852,166.518734 98.0491852,167.878153 C98.0491852,168.716292 97.6710008,169.155803 97.2110468,169.452218 C97.7527704,169.656642 98.1820608,170.259693 98.1820608,171.128495 C98.1820608,172.62079 97.1599408,173.510035 95.688088,173.510035 C94.0731383,173.510035 93.2043363,172.600348 93.1634515,171.179601 L94.7375163,171.08761 C94.7681799,171.721325 95.074816,172.10973 95.6778668,172.10973 C96.2706964,172.10973 96.5977748,171.741767 96.5977748,171.097831 C96.5977748,170.443675 96.1787056,170.137039 95.585876,170.137039 L94.7988435,170.137039 L94.7988435,168.78784 L95.5654336,168.78784 C96.0764936,168.78784 96.4648992,168.460762 96.4648992,167.898596 C96.4648992,167.326209 96.1787056,167.040015 95.6778668,167.040015 C95.1668068,167.040015 94.8601708,167.377315 94.8295071,167.990587 L93.2656635,167.908817 C93.2963271,166.508513 94.1446867,165.639711 95.6778668,165.639711 Z M102.010365,165.639711 C103.482218,165.639711 104.35102,166.416522 104.35102,167.816826 C104.35102,169.074034 103.696863,169.89173 102.981379,170.65832 L101.724171,171.997297 L104.391904,171.997297 L104.391904,173.397601 L99.66971,173.397601 L99.66971,172.160836 L101.775277,169.840624 C102.511204,169.04337 102.766734,168.644743 102.766734,167.888375 C102.766734,167.356872 102.500982,167.040015 102.041028,167.040015 C101.468641,167.040015 101.243775,167.438642 101.233554,168.113241 L99.6594888,168.02125 C99.6799312,166.539176 100.528291,165.639711 102.010365,165.639711 Z M108.353084,165.639711 C109.906707,165.639711 111.061702,166.651609 111.061702,168.205232 C111.061702,168.859389 110.847057,169.350006 110.499536,169.850845 L108.005563,173.397601 L106.114641,173.397601 L108.015785,170.750311 C106.646144,170.617435 105.664909,169.625979 105.664909,168.205232 C105.664909,166.651609 106.809683,165.639711 108.353084,165.639711 Z M108.363305,169.452218 C108.74149,169.452218 109.048126,169.309121 109.242329,169.04337 C109.385425,168.849167 109.456974,168.583416 109.456974,168.256338 C109.456974,167.51019 109.017462,167.040015 108.363305,167.040015 C107.709149,167.040015 107.259416,167.51019 107.259416,168.256338 C107.259416,169.012707 107.709149,169.452218 108.363305,169.452218 Z M114.910449,165.639711 C116.423186,165.639711 117.281767,166.518734 117.281767,167.878153 C117.281767,168.716292 116.903583,169.155803 116.443629,169.452218 C116.985352,169.656642 117.414643,170.259693 117.414643,171.128495 C117.414643,172.62079 116.392523,173.510035 114.92067,173.510035 C113.30572,173.510035 112.436918,172.600348 112.396033,171.179601 L113.970098,171.08761 C114.000762,171.721325 114.307398,172.10973 114.910449,172.10973 C115.503278,172.10973 115.830357,171.741767 115.830357,171.097831 C115.830357,170.443675 115.411287,170.137039 114.818458,170.137039 L114.031425,170.137039 L114.031425,168.78784 L114.798015,168.78784 C115.309075,168.78784 115.697481,168.460762 115.697481,167.898596 C115.697481,167.326209 115.411287,167.040015 114.910449,167.040015 C114.399389,167.040015 114.092753,167.377315 114.062089,167.990587 L112.498245,167.908817 C112.528909,166.508513 113.377269,165.639711 114.910449,165.639711 Z M121.52914,165.639711 C122.939666,165.639711 124.012892,166.447185 124.012892,167.796384 C124.012892,168.470983 123.726698,168.982043 123.276966,169.309121 C123.839132,169.687306 124.207095,170.310799 124.207095,171.128495 C124.207095,172.610569 123.06232,173.510035 121.539362,173.510035 C120.016403,173.510035 118.871628,172.610569 118.871628,171.128495 C118.871628,170.32102 119.22937,169.697527 119.791536,169.319343 C119.341804,168.992264 119.065831,168.470983 119.065831,167.796384 C119.065831,166.447185 120.118615,165.639711 121.52914,165.639711 Z M121.539362,167.040015 C121.038523,167.040015 120.639896,167.356872 120.639896,167.908817 C120.639896,168.430098 121.038523,168.746955 121.539362,168.746955 C122.060643,168.746955 122.438827,168.430098 122.438827,167.908817 C122.438827,167.356872 122.060643,167.040015 121.539362,167.040015 Z M121.539362,170.014384 C120.92609,170.014384 120.445693,170.392569 120.445693,171.056947 C120.445693,171.721325 120.92609,172.10973 121.539362,172.10973 C122.162855,172.10973 122.63303,171.721325 122.63303,171.056947 C122.63303,170.392569 122.162855,170.014384 121.539362,170.014384 Z M133.953474,173.397601 L132.624718,173.397601 L130.999547,168.552753 L129.374376,173.397601 L128.035399,173.397601 L125.367666,165.752144 L127.084827,165.752144 L128.720219,170.719647 L130.34539,165.752144 L131.643482,165.752144 L133.278874,170.719647 L134.904045,165.752144 L136.621207,165.752144 L133.953474,173.397601 Z M142.667511,165.752144 L140.766368,168.399435 C142.136009,168.53231 143.117244,169.523767 143.117244,170.944513 C143.117244,172.498136 141.97247,173.510035 140.429069,173.510035 C138.875446,173.510035 137.720451,172.498136 137.720451,170.944513 C137.720451,170.290357 137.935096,169.799739 138.282617,169.2989 L140.776589,165.752144 L142.667511,165.752144 Z M140.418847,172.10973 C141.073004,172.10973 141.522737,171.639555 141.522737,170.893407 C141.522737,170.137039 141.073004,169.697527 140.418847,169.697527 C140.040663,169.697527 139.734027,169.840624 139.539824,170.106375 C139.396727,170.300578 139.325179,170.566329 139.325179,170.893407 C139.325179,171.639555 139.764691,172.10973 140.418847,172.10973 Z" id="Trap-#12k32938w6" fill="#1F82FF"></path>
                    <g id="Group-7" transform="translate(21.371600, 185.840002)">
                        <rect id="Rectangle-3" fill="#F4F9FF" x="0" y="0" width="66.9024006" height="21.3716002" rx="10.6858001"></rect>
                        <path d="M13.1268085,7.8206644 L14.2102557,7.8206644 L13.9240621,9.00632361 L12.8406149,9.00632361 L12.4726517,10.5497248 L13.5765413,10.5497248 L13.3005689,11.735384 L12.1966793,11.735384 L11.7571677,13.5752 L10.5101813,13.5752 L10.9496929,11.735384 L9.80491849,11.735384 L9.37562808,13.5752 L8.11842047,13.5752 L8.55793207,11.735384 L7.49492727,11.735384 L7.77089967,10.5497248 L8.84412568,10.5497248 L9.20186768,9.00632361 L8.11842047,9.00632361 L8.40461407,7.8206644 L9.48806128,7.8206644 L9.94801529,5.92974238 L11.1950017,5.92974238 L10.7350477,7.8206644 L11.8696009,7.8206644 L12.3295549,5.92974238 L13.5765413,5.92974238 L13.1268085,7.8206644 Z M10.4488541,9.00632361 L10.0911121,10.5497248 L11.2256653,10.5497248 L11.5936285,9.00632361 L10.4488541,9.00632361 Z M19.1786882,5.66399118 C19.679527,5.66399118 20.0781538,6.06261798 20.0781538,6.56345679 C20.0781538,7.05407439 19.679527,7.4527012 19.1786882,7.4527012 C18.6778494,7.4527012 18.2894438,7.05407439 18.2894438,6.56345679 C18.2894438,6.06261798 18.6982918,5.66399118 19.1786882,5.66399118 Z M19.9248358,13.5752 L18.4325406,13.5752 L18.4325406,8.2908396 L19.9248358,8.2908396 L19.9248358,13.5752 Z M24.7957023,8.1886276 C26.0120251,8.1886276 26.8603847,8.97566001 26.8603847,10.3453008 L26.8603847,13.5752 L25.3680895,13.5752 L25.3680895,10.6314944 C25.3680895,9.95689522 25.0103475,9.57871081 24.4379603,9.57871081 C23.8451307,9.57871081 23.4567251,10.0080012 23.4567251,10.6417156 L23.4567251,13.5752 L21.9644299,13.5752 L21.9644299,8.2908396 L23.3749555,8.2908396 L23.3749555,8.83256321 C23.6100431,8.4646 24.0802183,8.1886276 24.7957023,8.1886276 Z M30.647804,8.1886276 C31.9867812,8.1886276 32.692044,8.91433281 32.7840348,9.89556802 L31.3019608,9.97733762 C31.2815184,9.59915321 31.0873156,9.33340201 30.6273616,9.33340201 C30.2287348,9.33340201 30.0243108,9.49694121 30.0243108,9.78313482 C30.0243108,10.151098 30.4229376,10.202204 31.056652,10.3657432 C32.1094356,10.6417156 32.8555832,10.968794 32.8555832,11.9295868 C32.8555832,13.0028128 32.0685508,13.6876332 30.6886888,13.6876332 C29.3394904,13.6876332 28.552458,13.0743612 28.4400248,11.9704716 L29.93232,11.888702 C29.9527624,12.2771076 30.18785,12.5428588 30.69891,12.5428588 C31.107758,12.5428588 31.363288,12.3690984 31.363288,12.0624624 C31.363288,11.7456052 31.1690852,11.6433932 30.4024952,11.4594116 C29.2781632,11.173218 28.5320156,10.9381304 28.5320156,9.85468322 C28.5320156,8.84278441 29.319048,8.1886276 30.647804,8.1886276 Z M39.4947173,11.4083056 L35.8661913,11.4083056 C35.8968549,12.0624624 36.2954817,12.4815316 36.9700809,12.4815316 C37.4913621,12.4815316 37.8286617,12.2668864 37.9410949,11.8989232 L39.4436113,11.9704716 C39.2596297,12.9721492 38.2477309,13.6876332 37.0109657,13.6876332 C35.3960161,13.6876332 34.2819053,12.6348496 34.2819053,10.9381304 C34.2819053,9.23119001 35.3960161,8.1886276 36.9700809,8.1886276 C38.4930397,8.1886276 39.4947173,9.16986281 39.4947173,10.815476 L39.4947173,11.4083056 Z M36.9598597,9.35384441 C36.3261453,9.35384441 35.9070761,9.74225002 35.8661913,10.4168492 L37.9922009,10.4168492 C37.9615373,9.77291362 37.6344589,9.35384441 36.9598597,9.35384441 Z M43.660321,8.1886276 C44.9481922,8.1886276 45.9703122,8.95521761 46.164515,10.2328676 L44.7028834,10.355522 C44.631335,9.81379842 44.2327082,9.46627761 43.660321,9.46627761 C42.9652794,9.46627761 42.4644406,9.99778002 42.4644406,10.9381304 C42.4644406,11.8682596 42.9652794,12.399762 43.660321,12.399762 C44.2429294,12.399762 44.631335,12.0726836 44.7131046,11.5411812 L46.164515,11.6740568 C45.960091,12.9210432 44.9584134,13.6876332 43.660321,13.6876332 C42.1066986,13.6876332 40.951703,12.6655132 40.951703,10.9381304 C40.951703,9.20052641 42.0964774,8.1886276 43.660321,8.1886276 Z M49.6759619,9.57871081 L49.6657407,11.5411812 C49.6657407,12.1237896 50.0439251,12.3384348 50.4629943,12.3384348 C50.6776395,12.3384348 50.8105151,12.3077712 50.9229483,12.2873288 L50.9229483,13.6160848 C50.7083031,13.6467484 50.5038791,13.677412 50.0950311,13.677412 C48.9502567,13.677412 48.1632243,13.1254672 48.1734455,11.8989232 L48.1836667,9.57871081 L47.2228739,9.57871081 L47.2228739,8.2908396 L48.1938879,8.2908396 L48.2041091,6.54301439 L49.6964043,6.54301439 L49.6861831,8.2908396 L50.9229483,8.2908396 L50.9229483,9.57871081 L49.6759619,9.57871081 Z M54.3424044,8.1886276 C55.6813816,8.1886276 56.3866444,8.91433281 56.4786352,9.89556802 L54.9965612,9.97733762 C54.9761188,9.59915321 54.781916,9.33340201 54.321962,9.33340201 C53.9233352,9.33340201 53.7189112,9.49694121 53.7189112,9.78313482 C53.7189112,10.151098 54.117538,10.202204 54.7512524,10.3657432 C55.804036,10.6417156 56.5501836,10.968794 56.5501836,11.9295868 C56.5501836,13.0028128 55.7631512,13.6876332 54.3832892,13.6876332 C53.0340908,13.6876332 52.2470583,13.0743612 52.1346251,11.9704716 L53.6269204,11.888702 C53.6473628,12.2771076 53.8824504,12.5428588 54.3935104,12.5428588 C54.8023584,12.5428588 55.0578884,12.3690984 55.0578884,12.0624624 C55.0578884,11.7456052 54.8636856,11.6433932 54.0970956,11.4594116 C52.9727635,11.173218 52.2266159,10.9381304 52.2266159,9.85468322 C52.2266159,8.84278441 53.0136484,8.1886276 54.3424044,8.1886276 Z" id="#-insects" fill="#1F82FF"></path>
                    </g>
                    <g id="Group-6" transform="translate(21.371600, 211.857602)">
                        <rect id="Rectangle-3-Copy" fill="#F4F9FF" x="0" y="0" width="75.2652007" height="21.3716002" rx="10.6858001"></rect>
                        <path d="M15.9144085,7.8206644 L16.9978557,7.8206644 L16.7116621,9.00632361 L15.6282149,9.00632361 L15.2602517,10.5497248 L16.3641413,10.5497248 L16.0881689,11.735384 L14.9842793,11.735384 L14.5447677,13.5752 L13.2977813,13.5752 L13.7372929,11.735384 L12.5925185,11.735384 L12.1632281,13.5752 L10.9060205,13.5752 L11.3455321,11.735384 L10.2825273,11.735384 L10.5584997,10.5497248 L11.6317257,10.5497248 L11.9894677,9.00632361 L10.9060205,9.00632361 L11.1922141,7.8206644 L12.2756613,7.8206644 L12.7356153,5.92974238 L13.9826017,5.92974238 L13.5226477,7.8206644 L14.6572009,7.8206644 L15.1171549,5.92974238 L16.3641413,5.92974238 L15.9144085,7.8206644 Z M13.2364541,9.00632361 L12.8787121,10.5497248 L14.0132653,10.5497248 L14.3812285,9.00632361 L13.2364541,9.00632361 Z M24.1945099,8.1886276 C25.6970263,8.1886276 26.7498099,9.28229601 26.7498099,10.9381304 C26.7498099,12.5939648 25.6970263,13.6876332 24.1945099,13.6876332 C23.5199107,13.6876332 22.9884083,13.4321032 22.7124359,13.1254672 L22.7124359,16.1816061 L21.2201407,16.1816061 L21.2201407,8.2908396 L22.6306663,8.2908396 L22.6306663,8.84278441 C22.9066387,8.4748212 23.4585835,8.1886276 24.1945099,8.1886276 Z M23.9594223,9.46627761 C23.2234959,9.46627761 22.7124359,9.96711642 22.7124359,10.815476 L22.7124359,11.0607848 C22.7124359,11.9091444 23.2234959,12.4099832 23.9594223,12.4099832 C24.7055699,12.4099832 25.2370723,11.8784808 25.2370723,10.9381304 C25.2370723,9.99778002 24.7055699,9.46627761 23.9594223,9.46627761 Z M33.4196076,11.4083056 L29.7910816,11.4083056 C29.8217452,12.0624624 30.220372,12.4815316 30.8949712,12.4815316 C31.4162524,12.4815316 31.753552,12.2668864 31.8659852,11.8989232 L33.3685016,11.9704716 C33.18452,12.9721492 32.1726212,13.6876332 30.935856,13.6876332 C29.3209064,13.6876332 28.2067956,12.6348496 28.2067956,10.9381304 C28.2067956,9.23119001 29.3209064,8.1886276 30.8949712,8.1886276 C32.41793,8.1886276 33.4196076,9.16986281 33.4196076,10.815476 L33.4196076,11.4083056 Z M30.88475,9.35384441 C30.2510356,9.35384441 29.8319664,9.74225002 29.7910816,10.4168492 L31.9170912,10.4168492 C31.8864276,9.77291362 31.5593492,9.35384441 30.88475,9.35384441 Z M36.9923817,9.57871081 L36.9821605,11.5411812 C36.9821605,12.1237896 37.3603449,12.3384348 37.7794141,12.3384348 C37.9940593,12.3384348 38.1269349,12.3077712 38.2393681,12.2873288 L38.2393681,13.6160848 C38.0247229,13.6467484 37.8202989,13.677412 37.4114509,13.677412 C36.2666765,13.677412 35.4796441,13.1254672 35.4898653,11.8989232 L35.5000865,9.57871081 L34.5392936,9.57871081 L34.5392936,8.2908396 L35.5103077,8.2908396 L35.5205289,6.54301439 L37.0128241,6.54301439 L37.0026029,8.2908396 L38.2393681,8.2908396 L38.2393681,9.57871081 L36.9923817,9.57871081 Z M44.5263354,8.1886276 C45.8653126,8.1886276 46.5705754,8.91433281 46.6625662,9.89556802 L45.1804922,9.97733762 C45.1600498,9.59915321 44.965847,9.33340201 44.505893,9.33340201 C44.1072662,9.33340201 43.9028422,9.49694121 43.9028422,9.78313482 C43.9028422,10.151098 44.301469,10.202204 44.9351834,10.3657432 C45.987967,10.6417156 46.7341146,10.968794 46.7341146,11.9295868 C46.7341146,13.0028128 45.9470822,13.6876332 44.5672202,13.6876332 C43.2180218,13.6876332 42.4309894,13.0743612 42.3185562,11.9704716 L43.8108514,11.888702 C43.8312938,12.2771076 44.0663814,12.5428588 44.5774414,12.5428588 C44.9862894,12.5428588 45.2418194,12.3690984 45.2418194,12.0624624 C45.2418194,11.7456052 45.0476166,11.6433932 44.2810266,11.4594116 C43.1566946,11.173218 42.410547,10.9381304 42.410547,9.85468322 C42.410547,8.84278441 43.1975794,8.1886276 44.5263354,8.1886276 Z M50.5113127,8.1886276 C51.9320595,8.1886276 52.7088707,8.92455401 52.7088707,10.3146372 L52.7088707,13.5752 L51.2676815,13.5752 L51.2676815,13.1459096 C50.9712667,13.4525456 50.5215339,13.6876332 49.9184831,13.6876332 C48.8554783,13.6876332 48.1604367,13.1459096 48.1604367,12.1237896 C48.1604367,10.9483516 49.1518931,10.5701672 50.2762251,10.5190612 L51.2165755,10.4679552 L51.2165755,10.2635312 C51.2165755,9.73202882 50.9917091,9.44583521 50.5317551,9.44583521 C50.0206951,9.44583521 49.7958287,9.79335602 49.7958287,10.1408768 L48.3035335,10.0795496 C48.3035335,9.14942041 49.1518931,8.1886276 50.5113127,8.1886276 Z M51.2165755,11.4491904 L50.4193219,11.5002964 C49.9695891,11.5207388 49.6527319,11.6740568 49.6527319,12.0522412 C49.6527319,12.399762 49.9082619,12.5326376 50.2660039,12.5326376 C50.8077275,12.5326376 51.2165755,12.2362228 51.2165755,11.6740568 L51.2165755,11.4491904 Z M57.1708892,5.57200038 C57.3957556,5.57200038 57.5388524,5.58222158 57.6921704,5.60266398 L57.6921704,6.89053519 C57.6001796,6.88031399 57.4979676,6.87009279 57.3446496,6.87009279 C56.8233684,6.87009279 56.4554052,7.20739239 56.4554052,7.7082312 L56.4554052,8.2908396 L57.6819492,8.2908396 L57.6819492,9.57871081 L56.4554052,9.57871081 L56.4554052,13.5752 L54.9733312,13.5752 L54.9733312,9.57871081 L54.0125384,9.57871081 L54.0125384,8.2908396 L54.9733312,8.2908396 L54.9733312,7.749116 C54.9733312,6.42035999 55.8421332,5.57200038 57.1708892,5.57200038 Z M64.0655533,11.4083056 L60.4370273,11.4083056 C60.4676909,12.0624624 60.8663177,12.4815316 61.5409169,12.4815316 C62.0621981,12.4815316 62.3994977,12.2668864 62.5119309,11.8989232 L64.0144473,11.9704716 C63.8304657,12.9721492 62.8185669,13.6876332 61.5818017,13.6876332 C59.966852,13.6876332 58.8527412,12.6348496 58.8527412,10.9381304 C58.8527412,9.23119001 59.966852,8.1886276 61.5409169,8.1886276 C63.0638757,8.1886276 64.0655533,9.16986281 64.0655533,10.815476 L64.0655533,11.4083056 Z M61.5306957,9.35384441 C60.8969813,9.35384441 60.4779121,9.74225002 60.4370273,10.4168492 L62.5630369,10.4168492 C62.5323733,9.77291362 62.2052949,9.35384441 61.5306957,9.35384441 Z" id="#-pet-safe" fill="#1F82FF"></path>
                    </g>
                </g>
            </g>
            <g id="door2" transform="translate(444.500000, 543.000000) rotate(-90.000000) translate(-444.500000, -543.000000) translate(414.000000, 507.000000)">
                <rect id="Rectangle-5" fill="#FFFFFF" x="0" y="3" width="50" height="68"></rect>
                <path d="M23.5828125,71.5 C47.7276042,35.9000947 59.8,18.100142 59.8,18.100142" id="Line-2" stroke="#E6EBF0" stroke-width="3.72" stroke-linecap="round"></path>
                <path d="M60.2932151,17.250703 C60.2932151,17.250703 45.3371368,-0.946929652 23.5725767,1.8228801" id="Path-10" stroke="#E6EBF0" stroke-width="3.72" opacity="0.5" stroke-linecap="round" transform="translate(41.932896, 9.393341) rotate(2.000000) translate(-41.932896, -9.393341) "></path>
            </g>
            <g id="door1" transform="translate(499.000000, 444.000000)">
                <rect id="Rectangle-5-Copy" fill="#FFFFFF" transform="translate(35.000000, 25.000000) rotate(-270.000000) translate(-35.000000, -25.000000) " x="10" y="-9" width="50" height="68"></rect>
                <path d="M11.5553759,70.8946241 C11.5553759,70.8946241 23.3887092,51.7648747 47.0553759,13.5053759" id="Line-2" stroke="#E6EBF0" stroke-width="1.86" stroke-linecap="round" transform="translate(29.305376, 42.200000) rotate(-270.000000) translate(-29.305376, -42.200000) "></path>
                <path d="M82.747525,45.9801113 C74.3168467,39.6707478 62.1429663,37.6598919 46.2258838,39.9475436" id="Path-10" stroke="#E6EBF0" stroke-width="1.86" opacity="0.5" stroke-linecap="round" transform="translate(64.486704, 42.507272) rotate(-261.000000) translate(-64.486704, -42.507272) "></path>
            </g>
        </g>
    </g>
</svg>